<?xml version="1.0" standalone="no"?>
<!DOCTYPE svg PUBLIC "-//W3C//DTD SVG 1.1//EN" "http://www.w3.org/Graphics/SVG/1.1/DTD/svg11.dtd" >
<!--
2013-9-30: Created.
-->
<svg>
<metadata>
Created by iconfont
</metadata>
<defs>

<font id="iconfont" horiz-adv-x="1024" >
  <font-face
    font-family="iconfont"
    font-weight="500"
    font-stretch="normal"
    units-per-em="1024"
    ascent="896"
    descent="-128"
  />
    <missing-glyph />
    
    <glyph glyph-name="x" unicode="x" horiz-adv-x="1001"
d="M281 543q-27 -1 -53 -1h-83q-18 0 -36.5 -6t-32.5 -18.5t-23 -32t-9 -45.5v-76h912v41q0 16 -0.5 30t-0.5 18q0 13 -5 29t-17 29.5t-31.5 22.5t-49.5 9h-133v-97h-438v97zM955 310v-52q0 -23 0.5 -52t0.5 -58t-10.5 -47.5t-26 -30t-33 -16t-31.5 -4.5q-14 -1 -29.5 -0.5
t-29.5 0.5h-32l-45 128h-439l-44 -128h-29h-34q-20 0 -45 1q-25 0 -41 9.5t-25.5 23t-13.5 29.5t-4 30v167h911zM163 247q-12 0 -21 -8.5t-9 -21.5t9 -21.5t21 -8.5q13 0 22 8.5t9 21.5t-9 21.5t-22 8.5zM316 123q-8 -26 -14 -48q-5 -19 -10.5 -37t-7.5 -25t-3 -15t1 -14.5
t9.5 -10.5t21.5 -4h37h67h81h80h64h36q23 0 34 12t2 38q-5 13 -9.5 30.5t-9.5 34.5q-5 19 -11 39h-368zM336 498v228q0 11 2.5 23t10 21.5t20.5 15.5t34 6h188q31 0 51.5 -14.5t20.5 -52.5v-227h-327z" />
    

    
    <glyph glyph-name="xinlang" unicode="&#58987;" d="M358.387 368.708c-164.784-19.254-145.739-173.583-145.739-173.583s-1.676-48.913 44.19-73.786c96.405-52.201 195.652-20.57 245.822 44.158 50.199 64.787 20.75 222.346-144.273 203.211zM316.845 152.074c-30.782-3.558-55.567 14.172-55.567 39.915 0 25.62 22.005 52.439 52.798 55.637 35.341 3.377 58.348-16.98 58.348-42.723 0.001-25.619-24.933-49.299-55.58-52.828zM413.953 234.828c-10.404-7.772-23.23-6.695-28.733 2.631-5.741 9.087-3.585 23.709 6.939 31.393 12.197 9.089 24.934 6.459 30.374-2.66 5.531-9.3 1.614-23.322-8.58-31.364zM800.509 789.985c-58.213 13.604-118.1 1.885-134.875-1.315-1.283-0.119-2.509-1.346-3.708-1.584-0.567-0.121-0.955-0.749-0.955-0.749-16.533-4.635-28.612-19.941-28.612-38.059 0-21.525 17.461-39.285 39.287-39.285 0 0 21.165 2.841 35.578 8.462 14.23 5.71 134.782 4.275 194.699-96.299 32.651-73.396 14.351-122.517 12.079-130.411 0 0-7.773-19.074-7.773-37.849 0-21.675 17.459-35.308 39.107-35.308 18.118 0 33.306 2.48 37.732 33.094l0.269 0c64.281 214.302-78.695 314.995-182.827 339.3zM820.121 474.185c13.274 0 24.545 9.837 26.431 22.633 0.269 0.986 0.386 1.823 0.386 2.9 20.123 180.934-148.235 149.783-148.235 149.783-14.98 0-26.94-12.079-26.94-27.207 0-14.83 11.961-26.907 26.94-26.907 120.939 26.669 94.208-94.236 94.208-94.236 0.001-14.978 12.202-26.966 27.21-26.966zM739.903 407.394c-38.896 7.533-20.003 28.462-20.003 28.462s38.06 62.783-7.533 108.375c-56.537 56.534-193.86-7.204-193.86-7.204-52.5-16.235-38.597 7.474-31.153 47.806 0 47.565-16.294 127.988-156.055 80.452-139.609-47.776-259.456-215.139-259.456-215.139-83.339-111.244-72.322-197.197-72.322-197.197 20.825-189.817 222.486-241.899 379.334-254.246 165.007-12.916 387.748 56.897 455.287 200.308 67.511 143.718-55.22 200.581-94.239 208.385zM391.082 52.218c-163.842-7.653-296.245 74.505-296.245 183.809 0 109.479 132.403 197.2 296.245 204.764 163.902 7.531 296.589-60.004 296.589-169.187 0-109.305-132.688-211.908-296.589-219.385z"  horiz-adv-x="1000" />

    
    <glyph glyph-name="xianluxuanxiangqiazhoubian" unicode="&#59145;" d="M363.058 541.802c-5.312 2.045-11.472 2.404-18.623 0.439-34.49-9.449-33.242-43.263-44.354-159.539-11.078-116.275-71.857-186.29-17.227-224.207 18.003-12.477 51.683 3.059 78.098 19.356-2.179 8.958-3.327 18.529-3.327 28.676 0 0 0 198.847 0 278.745 0 21.829 1.925 40.574 5.431 56.531zM526.963 593.187l38.94 0c9.062 0 16.397 7.334 16.397 16.396l0 19.47c0 9.065-7.334 16.396-16.397 16.396l-38.94 0c-9.063 0-16.396-7.331-16.396-16.396l0-19.47c0-9.061 7.332-16.396 16.396-16.396zM511.317 894.836c-282.299 0-511.152-228.854-511.152-511.151 0-282.282 228.853-511.17 511.152-511.17 282.295 0 511.15 228.889 511.15 511.17-0.001 282.297-228.857 511.151-511.15 511.151zM795.922 171.303c0-44.897-37.242-81.275-83.227-81.275 0 0-137.315 0-216.347 0-46.397 0-86.103 14.869-111.001 41.972-44.878-23.971-127.075-55.271-161.642 12.98-33.53 66.222 24.657 159.298 32.023 289.102 7.396 129.805 43.133 164.965 88.702 164.965 16.823 0 28.599-5.529 36.78-12.498 15.121 21.977 36.255 31.455 59.641 31.455l22.577 0 0 23.345c0 21.519 17.42 38.94 38.94 38.94l88.127 0c21.519 0 38.94-17.421 38.94-38.94l0-23.345 25.008 0c45.954 0 73.524-39.291 83.229-81.273 9.705-41.981 21.646-144.967 21.646-144.967s20.528-5.41 31.063-44.624c26.13-97.236 5.539-175.836 5.539-175.836zM711.639 411.202c-12.33 8.87-29.43 14.489-29.43 14.489s-95.714 0-155.373 0c-59.628 0-99.847-46.048-99.847-94.804 0-48.755 0-178.542 0-178.542s7.235-7.302 18.027-13.642c8.774-5.124 20.816-10.759 20.816-10.759s0 165.03 0 200.24c0 35.207 27.731 62.299 63.789 62.299 36.059 0 205.266 0 205.266 0s-9.318 10.697-23.247 20.72z"  horiz-adv-x="1024" />

    
    <glyph glyph-name="rili" unicode="&#59125;" d="M367.428 281.323l-142.649 0 0 142.645 142.649 0 0-142.645zM582.953 423.969l-142.644 0 0-142.645 142.644 0 0 142.645zM798.482 423.969l-142.647 0 0-142.645 142.647 0 0 142.645zM367.428 215.7l-142.649 0 0-142.645 142.649 0 0 142.645zM582.953 215.7l-142.644 0 0-142.645 142.644 0 0 142.645zM798.482 215.7l-142.647 0 0-142.645 142.647 0 0 142.645zM851.605 711.942c0-24.303-19.7-44.004-44.001-44.004s-44.005 19.702-44.005 44.004l0 110.738c0 24.3 19.705 44.001 44.005 44.001s44.001-19.702 44.001-44.001l0-110.738zM257.09 822.879c0 24.301-19.705 44.002-44.001 44.002-24.304 0-44.005-19.702-44.005-44.002l0-110.736c0-24.303 19.702-44.007 44.005-44.007 24.299 0 44.001 19.706 44.001 44.007l0 110.736zM904.793 758.629l0-45.077c0-53.593-43.599-97.191-97.189-97.191-53.593 0-97.193 43.599-97.193 97.191l0 45.077-400.133 0 0-44.879c0-53.595-43.6-97.193-97.189-97.193-53.593 0-97.193 43.599-97.193 97.193l0 44.879-105.548 0 0-869.375 997.725 0 0 869.375-103.281 0zM911.207-13.882l-803.995 0 0 538.75 803.995 0 0-538.75z"  horiz-adv-x="1024" />

    
    <glyph glyph-name="jiantouyou" unicode="&#59112;" d="M507.913259-63.013917c-249.059397 0-450.962913 200.209858-450.962913 447.184809 0 246.973928 201.902492 447.184809 450.962913 447.184809 249.061444 0 450.963936-200.210881 450.963936-447.184809C958.877195 137.195941 756.974703-63.013917 507.913259-63.013917zM507.913259 794.088936c-228.30692 0-413.382499-183.523827-413.382499-409.919067s185.076602-409.919067 413.382499-409.919067c228.307944 0 413.382499 183.52485 413.382499 409.919067S736.22018 794.088936 507.913259 794.088936zM708.36669 364.409826 509.051222 166.76642c-11.000992-10.900258-28.855347-10.900258-39.85634 0-11.010203 10.916631-11.010203 28.621874 0 39.539528l151.936496 150.661372L312.534611 356.96732c-15.561032 0-28.185054 12.519128-28.185054 27.949562 0 15.438621 12.624022 27.949562 28.185054 27.949562l307.090399 0L469.194883 562.036859c-11.010203 10.917654-11.010203 28.612665 0 39.522132 11.000992 10.917654 28.855347 10.917654 39.85634 0l197.14904-195.497533c3.688147-3.057639 6.605712-6.823406 8.3321-11.354606 0.145315-0.372483 0.108475-0.782829 0.237417-1.163499 0.91692-2.756787 1.741739-5.567809 1.741739-8.625448 0-0.054235-0.017397-0.100284-0.017397-0.155543C716.659904 377.410931 714.017619 370.013451 708.36669 364.409826z"  horiz-adv-x="1024" />

    
    <glyph glyph-name="iconfontcha" unicode="&#59160;" d="M754.782 683.404 512 440.632 269.218 683.404c-13.081 13.081-34.29 13.081-47.369 0-13.081-13.081-13.081-34.288 0-47.367l242.782-242.771L221.849 150.493c-13.081-13.081-13.081-34.288 0-47.367 13.081-13.081 34.29-13.081 47.369 0L512 345.897l242.782-242.771c13.081-13.081 34.289-13.081 47.37 0 13.081 13.081 13.081 34.288 0 47.367L559.37 393.265l242.782 242.771c13.081 13.081 13.081 34.288 0 47.367C789.07 696.483 767.862 696.483 754.782 683.404z"  horiz-adv-x="1024" />

    
    <glyph glyph-name="zuojiantou" unicode="&#59154;" d="M975.386505 383.480242c0-255.520323-207.864242-463.383273-463.389737-463.383273C256.477737-79.904323 48.613495 127.959919 48.613495 383.480242 48.613495 639.004444 256.477737 846.868687 511.995475 846.868687 767.522263 846.868687 975.386505 639.004444 975.386505 383.480242L975.386505 383.480242zM114.810182 383.480242c0-219.015758 178.172121-397.186586 397.186586-397.186586 219.020929 0 397.193051 178.172121 397.193051 397.186586 0 219.019636-178.172121 397.191758-397.193051 397.191758C292.982303 780.672 114.810182 602.499879 114.810182 383.480242L114.810182 383.480242zM456.527515 572.211717 290.764929 408.272162c-9.797818-9.667232-12.247919-23.964444-7.378747-35.979636 0.298667-0.757657 1.025293-1.353697 1.388606-2.085495 1.520485-3.075879 3.176727-6.156929 5.727677-8.737616 0.029737-0.029737 0.065939-0.029737 0.095677-0.065939 0.036202-0.029737 0.036202-0.067232 0.065939-0.100848l164.37398-164.827798c12.908606-12.944808 33.857939-12.974545 46.797576-0.071111 6.490505 6.454303 9.733172 14.964364 9.733172 23.434343 0 8.442828-3.206465 16.914101-9.662061 23.368404L395.062949 350.383838 710.593293 350.383838c18.302707 0 33.101576 14.828606 33.101576 33.096404 0 18.27297-14.797576 33.101576-33.101576 33.101576L393.305859 416.581818l109.756768 108.56598c6.556444 6.454303 9.828848 14.995394 9.828848 23.53002 0 8.409212-3.176727 16.818424-9.566384 23.272727C490.487596 584.954828 469.533091 585.085414 456.527515 572.211717L456.527515 572.211717zM456.527515 572.211717"  horiz-adv-x="1024" />

    
    <glyph glyph-name="biaoqing" unicode="&#59108;" d="M942.577061 388.988618c0 237.637282-192.632275 430.269557-430.269557 430.269557s-430.269557-192.632275-430.269557-430.269557c0-237.647515 192.632275-430.27979 430.269557-430.27979 97.553827 0 186.878225 33.189913 259.055081 87.88563 2.964518 3.363607 4.91187 7.655354 4.91187 12.479219 0 10.531867-8.541537 19.073404-19.072381 19.073404-5.465478 0-10.334369-2.168386-13.808494-5.842055l-0.242524 0c-64.584947-47.526433-144.086629-75.981509-230.422973-75.981509-215.179804 0-389.645324 174.489056-389.645324 389.656581 0 215.201294 174.466544 389.644301 389.645324 389.644301 215.202317 0 389.645324-174.443008 389.645324-389.644301 0-65.738213-15.423271-127.60219-44.186362-181.922353l0-0.321318c-0.533143-1.814322-1.108241-3.583618-1.108241-5.53097 0-10.531867 8.541537-19.073404 19.073404-19.073404 8.207939 0 15.06716 5.265934 17.745153 12.523221l0-0.13303C924.544359 250.720507 942.577061 317.741947 942.577061 388.988618zM399.574976 504.621195c0 24.028253-19.47147 43.499723-43.500746 43.499723-24.029276 0-43.478234-19.47147-43.478234-43.499723 0-24.029276 19.448958-43.479257 43.478234-43.479257C380.102483 461.141938 399.574976 480.591919 399.574976 504.621195zM669.735999 548.054403c-24.004717 0-43.476187-19.448958-43.476187-43.478234 0-24.029276 19.47147-43.500746 43.476187-43.500746 24.029276 0 43.50177 19.47147 43.50177 43.500746C713.237769 528.605446 693.766298 548.054403 669.735999 548.054403zM702.196295 265.257595c0 11.793604-9.558703 21.330818-21.350261 21.330818-1.88186 0-3.562129-0.620124-5.335519-1.084705l-0.441045 0c-49.473785-22.723537-104.548124-38.610366-162.562423-38.610366-57.130162 0-111.007233 16.130376-159.907966 38.233789l-0.177032 0c-2.300392 0.818645-4.690836 1.461281-7.2798 1.461281-11.880585 0-21.505803-9.602705-21.505803-21.485337 0-8.120958 4.513804-15.222703 11.129478-18.872836 54.209646-24.6494 113.883747-42.980907 177.319521-42.980907 63.037708 0 124.240629 18.686594 178.185238 43.046399 0.308015 0.149403 0.217964 0.11154 0.070608 0.045025C696.59574 250.071731 702.196295 257.454886 702.196295 265.257595z"  horiz-adv-x="1024" />

    
    <glyph glyph-name="yinsi" unicode="&#59127;" d="M502.8576 803.5552C371.0304 803.5552 182.672 735.5328 128 735.5328l0-460.6272c6.7232-56.4544 54.128-225.2064 374.8576-303.6288 320.6624 78.4224 367.5136 247.1744 374.1056 303.6288L876.9632 735.5328C823.0464 735.5328 634.6432 803.5552 502.8576 803.5552L502.8576 803.5552zM831.5072 288.56c-5.7984-49.6-46.9696-197.8624-328.6912-266.7712-281.7952 68.9088-323.4624 217.1712-329.3568 266.7712L173.4592 693.2736c48.032 0 213.5424 59.7696 329.3568 59.7696 115.792 0 281.3088-59.7696 328.6912-59.7696L831.5072 288.56 831.5072 288.56zM286 564.6496 286 604.0256l114.3744 0c30 0 56.8672 3.7504 80.624 11.2512l0-41.2512c-27.5104-6.2688-50.0096-9.376-67.5008-9.376l0-60 69.376 0 0-39.376-69.376 0c15.0016-35.008 34.9824-67.5008 60-97.5008l0-50.624c-25.0176 22.4992-45.0016 44.3552-60 65.6256l0-189.376-54.3744 0 0 172.4992c-17.52-31.2608-44.384-66.2688-80.624-105.0016l0 52.4992c34.9824 47.4912 60.6144 98.1152 76.8736 151.8752L280.3744 465.2704l0 39.376 78.7488 0 0 60L286 564.6464zM475.376 227.1488l0 41.2512c33.7504 105.0016 56.2496 220.6048 67.5008 346.8736l61.8752 0c-16.2592-135.0016-42.5088-251.2512-78.7488-348.7488 37.5008 0 77.4912 3.1072 120 9.376-5.008 43.7408-13.1264 92.4896-24.3744 146.2496l45.0016 0c18.7488-71.2512 33.1072-143.1424 43.1264-215.6256l-56.2496 0-3.7504 31.8752c-43.7696-7.5008-86.2496-11.2512-127.5008-11.2512L475.376 227.1488z"  horiz-adv-x="1024" />

    
    <glyph glyph-name="yonghu" unicode="&#59133;" d="M918.976 626.368l-0.448-0.128c-0.128 0.256-0.128 0.64-0.32 0.96-5.376 9.536-17.6 12.736-27.072 7.296-9.344-5.504-12.608-17.6-7.232-27.072 0.256-0.32 0.64-0.448 0.832-0.832l-0.192-0.064c36.672-63.744 57.792-137.536 57.792-216.256 0-240-195.264-435.264-435.264-435.264s-435.264 195.264-435.264 435.264c0 240 195.264 435.2 435.264 435.2 78.784 0 152.576-21.12 216.256-57.856 0.192 0 0.192-0.064 0.256-0.064 0.064-0.064 0.128-0.064 0.192-0.064s0.064 0 0.192-0.064l0 0c9.344-5.248 21.248-1.984 26.624 7.36 5.44 9.344 2.24 21.248-6.976 26.816l0.128 0.192c-69.632 40.256-150.464 63.36-236.672 63.36-262.272 0-474.88-212.608-474.88-474.816 0-262.272 212.608-474.816 474.88-474.816 262.144 0 474.816 212.544 474.816 474.816C981.888 476.224 958.848 556.8 918.976 626.368zM807.04 199.872c0 0-6.336 75.072-34.944 82.56 0 0-53.184-33.664-67.008-51.264 0 0-21.504-16.896-35.456 1.792 0 0-11.712 11.968-25.856 24-11.712 22.016-26.112 42.624-37.568 57.664 30.784-16.32 99.456-41.6 170.752 6.656 0 0 52.736-37.184 70.272-120.96C847.296 200.32 848.704 198.848 807.04 199.872L807.04 199.872zM686.208 329.856c-38.848 0-73.344 17.856-96.384 45.632 6.272 9.024 11.712 18.56 16.32 28.608 16.96-26.368 46.464-43.904 80.064-43.904 52.672 0 95.296 42.688 95.296 95.296 0 52.672-42.624 95.36-95.296 95.36-25.664 0-48.896-10.304-66.048-26.816-2.24 10.944-5.696 21.44-9.536 31.552 20.992 16 47.168 25.472 75.648 25.472 69.504 0 125.632-56.192 125.632-125.632C811.84 386.112 755.712 329.856 686.208 329.856L686.208 329.856zM432.832 330.816c-85.184 0-154.176 68.928-154.176 154.048 0 85.056 68.992 153.984 154.176 153.984 85.056 0 153.984-68.928 153.984-153.984C586.816 399.808 517.888 330.816 432.832 330.816L432.832 330.816zM432.832 601.792c-64.576 0-117.056-52.352-117.056-116.864 0-64.576 52.416-116.992 117.056-116.992s116.928 52.352 116.928 116.992C549.76 549.44 497.408 601.792 432.832 601.792L432.832 601.792zM313.344 329.792c0 0 112-84.352 230.08-4.608 0 0 81.28-45.952 86.208-170.752 0 0 1.792-1.664-49.344-0.448 0 0 5.184 116.416-42.944 123.648 0 0-65.216-41.344-82.048-62.784 0 0-26.496-20.672-43.328 2.304 0 0-61.696 62.016-84.672 62.016 0 0-32.128-28.288-26.176-127.168l-53.632 0.448C247.424 152.32 245.824 280.768 313.344 329.792L313.344 329.792z"  horiz-adv-x="1024" />

    
    <glyph glyph-name="mudedi" unicode="&#59146;" d="M457.728 402.368c0-29.974 24.298-54.272 54.272-54.272s54.272 24.298 54.272 54.272c0 0 0 0 0 0 0 29.974-24.298 54.272-54.272 54.272-29.974 0-54.272-24.298-54.272-54.272 0 0 0 0 0 0zM512 896c-282.752 0-512-229.248-512-512s229.248-512 512-512 512 229.248 512 512c0 282.752-229.248 512-512 512zM665.536 248.768l-153.536-153.6-153.536 153.536c-39.36 39.36-63.616 93.632-63.616 153.6-0.064 120 97.216 217.216 217.152 217.216s217.216-97.28 217.216-217.216c0-59.904-24.32-114.176-63.68-153.536z"  horiz-adv-x="1024" />

    
    <glyph glyph-name="renzheng" unicode="&#59128;" d="M809.3692 608.280066 544.389176 608.280066c-11.003612 0-19.925818-8.916067-19.925818-19.921725 0-11.001565 8.922207-19.917632 19.925818-19.917632l264.979 0c11.003612 0 19.925818 8.916067 19.925818 19.917632C829.287855 599.363999 820.371788 608.280066 809.3692 608.280066L809.3692 608.280066 809.3692 608.280066zM809.3692 509.214816 544.389176 509.214816c-11.003612 0-19.925818-8.916067-19.925818-19.920702 0-11.002588 8.922207-19.924795 19.925818-19.924795l264.979 0c11.003612 0 19.925818 8.922207 19.925818 19.924795C829.287855 500.298749 820.371788 509.214816 809.3692 509.214816L809.3692 509.214816 809.3692 509.214816zM635.753023 390.220678c0 11.006681-8.916067 19.920702-19.919678 19.920702l-71.450309 0c-11.004635 0-19.919678-8.91402-19.919678-19.920702 0-11.000542 8.915044-19.916609 19.919678-19.916609l71.450309 0C626.83798 370.30407 635.753023 379.226277 635.753023 390.220678L635.753023 390.220678 635.753023 390.220678zM278.972201 359.74355c-3.668553-4.027733-9.046027-8.251941-16.117073-12.613272-9.076726-5.693676-19.509333-10.081613-31.251771-13.098319-11.783371-3.036149-23.134907-6.500041-34.046421-10.328229-10.93505-3.866051-20.500916-9.107425-28.723182-15.626909-8.252964-6.573719-13.216-16.059767-14.913665-28.507264-3.346211-21.846564-4.107551-39.665395-2.249227-53.450353 1.833765-13.761422 4.437056-22.008246 7.813966-24.703635 1.99954-1.697665 6.882757-3.364631 14.609743-5.043876 7.732102-1.697665 17.161868-3.370771 28.233018-5.037736 11.128455-1.673106 23.470551-3.270487 37.065174-4.807493 13.623275-1.499144 27.329439-2.843768 41.114396-4.027733 13.761422-1.146103 27.140127-2.106987 40.08188-2.769067 12.929474-0.681522 24.283056-1.010003 34.047444-1.010003 9.750061 0 21.262256 0.328481 34.526351 1.010003 13.271258 0.662079 27.14729 1.622964 41.620933 2.769067 14.440897 1.182942 28.811186 2.608407 43.086307 4.306072 8.046257 0.942465 15.648398 1.970888 22.848381 3.072989L496.718457 330.83515c-2.554172 0.7552-5.125741 1.486864-7.717775 2.180666-9.920954 2.689249-19.074428 5.732561-27.491121 9.070586-9.401114 3.705392-16.694217 7.9296-21.903869 12.616342-5.229095 4.718465-9.102309 9.66922-11.617595 14.856359-2.521426 5.237281-3.944845 10.43977-4.273327 15.644305-0.361227 5.216815 0 10.342556 1.006933 15.382339 1.339508 8.41567 4.03285 14.369266 8.060583 17.899672 4.033873 3.533476 9.265014 7.812943 15.621792 12.857842 2.687202 2.358721 5.128811 5.64865 7.323802 9.812483 2.193968 4.222161 4.114714 8.496511 5.78168 12.884448 1.702782 5.040806 3.400446 10.420327 5.073552 16.115026 3.344165 1.014096 6.523577 2.849908 9.572006 5.567809 2.677992 2.330068 5.119601 5.613858 7.315616 9.841136 2.188852 4.163833 3.594875 9.813506 4.278443 16.882506 0.685615 5.372358 0.600681 9.900487-0.24457 13.5936-0.853437 3.705392-1.950422 6.747681-3.287883 9.103332-1.348718 2.688225-3.192715 4.855588-5.545296 6.529717 0 13.784958-0.819668 27.41028-2.515287 40.83708-1.703805 11.791557-4.527107 24.12649-8.55791 37.064151-4.050246 12.941753-10.440793 24.808012-19.193131 35.550681-3.663436 4.715395-8.792247 9.406231-15.371082 14.115486-6.54916 4.719488-14.040784 8.93858-22.416546 12.614296-8.42181 3.728928-17.419741 6.628978-27.01119 8.828063-9.564843 2.194992-19.211551 3.289929-28.968775 3.289929-7.733125 0-15.739473-0.600681-23.962761-1.759063-8.219195-1.202385-16.47216-3.452635-24.695448-6.822382-8.252964-3.370771-16.313547-7.979742-24.214495-13.872962-7.892761-5.866614-15.042601-13.511735-21.430078-22.943548-7.076162-9.757225-12.338003-20.830421-15.899108-33.276894-3.507894-12.44852-5.948479-24.00881-7.29208-34.784224-1.698688-12.775978-2.354628-25.551956-2.033309-38.320771-3.010567-3.370771-5.203512-6.883781-6.54302-10.608615-1.343601-3.345188-2.279926-7.379061-2.769067-12.088316-0.494257-4.689812 0.24764-9.900487 2.273786-15.624862 1.666966-5.730515 3.699252-10.087753 6.058996-13.130042 2.353604-3.016707 4.524037-5.371334 6.517437-7.043417 2.361791-1.680269 4.721535-2.857071 7.076162-3.53757 1.705851-5.700839 3.369747-11.08036 5.043876-16.121166 1.696642-4.387937 3.538593-8.661264 5.531993-12.884448 2.033309-4.163833 4.387937-7.453762 7.076162-9.812483 5.700839-4.716418 10.911514-9.318226 15.626909-13.866822 4.715395-4.524037 7.397481-10.662851 8.060583-18.395976 0.354064-5.395894 0.520863-10.255575 0.520863-14.609743 0-4.384867-0.849344-8.581446-2.52859-12.634762C285.384237 367.804133 282.701129 363.7764 278.972201 359.74355L278.972201 359.74355 278.972201 359.74355zM113.417631 137.107937c-25.836435 2.696412-46.147016 24.740474-46.147016 51.296293L67.270615 686.947753c0 28.365025 23.171746 49.41955 51.494815 49.41955l753.726413 0c28.328185 0 53.657061-21.054525 53.657061-49.41955l0-309.35979c12.687974-9.830903 39.162952-20.797675 49.839105-32.731472L975.988008 719.296509c0 38.048571-48.693002 66.283636-86.686315 66.283636L86.496491 785.580145c-37.987173 0-69.064982-42.961464-69.064982-81.003895l0-533.147646c0-35.626405 27.243481-79.915098 61.895699-83.533508l429.391561 0c-3.063779 11.221576-5.408173 37.448914-6.952342 49.213865L113.417631 137.10896 113.417631 137.107937 113.417631 137.107937zM654.3598 169.538557c-6.487761-0.086981-12.453636-2.750647-16.83441-7.453762-4.299933-4.603855-6.523577-10.576893-6.275937-16.821107 0.223081-6.240121 2.862187-12.026918 7.446599-16.288988l99.009991-92.107791c4.882194-4.523013 11.419074-6.797823 18.136056-6.183839 6.617721 0.669242 12.720719 4.095271 16.686031 9.510608l133.545552 181.662433c7.664563 10.43363 5.384637 25.092491-5.030573 32.721239-10.129708 7.40362-25.347295 5.055133-32.721239-5.031597L750.370481 89.053478l-79.753415 74.219375C666.174893 167.393707 660.400377 169.618375 654.3598 169.538557M777.552563 382.125303c-129.648802 0-234.748489-105.101733-234.748489-234.750535S647.902738-87.372697 777.552563-87.372697s234.742349 105.099686 234.742349 234.747465S907.201365 382.125303 777.552563 382.125303L777.552563 382.125303zM777.552563-43.307086c-105.311511 0-190.691063 85.37239-190.691063 190.682877s85.379553 190.691063 190.691063 190.691063 190.684924-85.380576 190.684924-190.691063S882.864074-43.307086 777.552563-43.307086L777.552563-43.307086zM777.552563-43.307086"  horiz-adv-x="1024" />

    
    <glyph glyph-name="youyong" unicode="&#59043;" d="M878.023994 25.202541c-24.570219-54.199012-62.1482-93.944954-123.573747-94.667608-31.0741-0.722653-62.1482 0-93.222301 0-113.456598 0-227.63585 0-341.092449 0-70.097389 0-140.917431-2.890614-211.01482 0-57.812279 2.16796-62.1482 46.249824-62.1482 90.331687 0 50.585745 0 101.894143 0 152.479887 0 94.667608-5.058574 191.503176 0 286.170783 3.613267 72.265349 89.609033 57.089626 140.194778 57.089626 26.015526 0 48.417784 7.226535 71.542696 17.343684 52.753705 23.124912 99.003529 59.98024 134.41355 106.230064 24.570219 31.796754 44.081863 67.206775 58.534933 104.784757 14.45307 35.410021 24.570219 76.60127 62.1482 94.667608 55.644319 26.738179 119.96048-17.343684 147.421313-65.038814 40.468596-70.820042 8.671842-139.472124-32.519407-200.897671-41.191249-62.1482 38.300635-57.089626 80.214538-57.089626 49.863091 0 123.573747 12.285109 171.268878-10.117149 60.702893-29.628793 67.929428-122.851094 64.316161-180.663373-3.613267-62.1482-17.343684-125.741708-31.796754-185.721948-9.394495-40.468596-20.956951-80.214538-36.855328-118.515173-8.671842-21.679605 26.015526-31.0741 34.687368-9.394495 33.964714 80.937191 49.863091 168.378264 62.1482 255.096683 8.671842 62.1482 12.285109 125.019054-7.949188 186.444601-18.788991 56.366972-59.257586 93.222301-119.237826 99.726182-25.292872 2.890614-50.585745 0.722653-75.878617 0.722653-24.570219 0-49.140438 0-74.43331 0-11.562456 0-25.292872 2.16796-37.577982 0-1.445307 0-10.839802 1.445307-11.562456 0.722653-2.890614-2.890614 5.781228-10.117149 5.058574-10.117149 3.613267 0 21.679605 31.796754 23.124912 34.687368 10.839802 17.343684 20.956951 36.132675 28.183486 55.644319 13.007763 33.964714 16.62103 70.097389 9.394495 105.50741-12.285109 59.98024-57.812279 114.179252-115.624559 135.136203C541.267466 895.277347 481.287227 877.933663 448.045166 827.347918c-26.015526-39.023289-34.687368-87.441073-59.257586-128.632322C368.553282 664.028229 341.815102 632.231475 310.741002 606.938603c-31.0741-24.570219-71.542696-48.417784-112.011291-54.921665-3.613267-0.722653 0.722653 0 2.16796 0-3.613267 0-7.949188 0-11.562456 0-15.175723 0.722653-31.0741 0-46.249824 0-28.183486 0-57.089626 2.16796-82.382498-10.839802-45.52717-23.847565-49.863091-66.484121-49.863091-111.288638 0-55.644319 0-111.288638 0-167.65561 0-64.316161 0-129.354975 0-193.671136 0-31.796754-3.613267-66.484121 1.445307-98.280875 11.562456-70.820042 78.046577-77.323924 135.858857-77.323924 42.636556 0 84.550459 0 127.187015 0 106.952717 0 213.182781 0 320.135498 0 48.417784 0 97.558222 0 145.976006 0 32.519407 0 63.593507 2.890614 93.222301 20.234298 35.410021 20.956951 58.534933 55.644319 75.878617 92.499647C919.215243 28.093155 888.141143 46.159492 878.023994 25.202541zM183.553987 534.673253c0-181.386027 0-362.772054 0-543.435427 0-26.738179 0-52.753705 0-79.491884 0-23.124912 36.132675-23.124912 36.132675 0 0 181.386027 0 362.772054 0 543.435427 0 26.738179 0 52.753705 0 79.491884C219.686662 558.520819 183.553987 558.520819 183.553987 534.673253L183.553987 534.673253z"  horiz-adv-x="1024" />

    
    <glyph glyph-name="xiazai" unicode="&#58929;" d="M786.759249 485.417831 751.989351 523.919726 538.138822 330.675514 538.138822 713.220117 486.251058 713.220117 486.251058 331.100186 272.733103 525.296073 237.867014 486.854553 512.229732 237.342826ZM844.05928 304.880011 844.05928 114.812141 180.33981 114.812141 180.33981 304.880011 128.457162 304.880011 128.457162 62.933587 895.936811 62.933587 895.936811 304.880011Z"  horiz-adv-x="1024" />

    
    <glyph glyph-name="brand" unicode="&#58930;" d="M512 861.888C248.064 861.888 34.176 648 34.176 384c0-263.936 213.952-477.888 477.888-477.888 264 0 477.824 214.016 477.824 477.888C989.888 648 776 861.888 512 861.888zM830.528 65.472c-41.344-41.344-89.472-73.856-143.104-96.512C631.872-54.528 572.928-66.368 512-66.368c-60.8 0-119.808 11.904-175.36 35.392-53.632 22.656-101.824 55.104-143.168 96.512-41.344 41.344-73.856 89.6-96.512 143.232C73.472 264.128 61.568 323.2 61.568 384c0 60.8 11.904 119.744 35.392 175.296C119.68 612.992 152.128 661.12 193.536 702.528 234.88 743.872 283.072 776.384 336.704 799.04 392.256 822.528 451.2 834.432 512 834.432c60.864 0 119.872-11.968 175.36-35.392 53.632-22.656 101.76-55.168 143.104-96.512 41.344-41.408 73.856-89.536 96.64-143.168C950.528 503.808 962.496 444.864 962.496 384c0-60.864-12.032-119.936-35.392-175.296C904.384 155.136 871.872 106.88 830.528 65.472zM336.832 465.216c0 97.536 79.104 176.64 176.704 176.64 97.536 0 176.704-79.104 176.704-176.64 0-97.6-79.104-176.704-176.704-176.704C415.936 288.512 336.832 367.616 336.832 465.216L336.832 465.216zM309.632 465.216c0-112.64 91.264-203.968 203.904-203.968 112.576 0 203.84 91.328 203.84 203.968 0 112.512-91.264 203.84-203.84 203.84C400.96 669.056 309.632 577.728 309.632 465.216L309.632 465.216zM513.536 526.336 492.544 486.144 445.568 479.616l33.984-31.36L471.552 404.032l42.048 20.864L555.52 404.032 547.456 448.256l34.048 31.36L534.592 486.144 513.536 526.336 513.536 526.336zM278.656 188.224l81.152 103.232L343.616 308.864l-98.752-125.248c-10.688-10.624-7.168-18.112 7.808-17.024l65.472-1.728 14.592-52.224c2.304-14.72 16.96-18.496 26.048-6.528l93.568 134.848-26.752 6.72L348.736 134.4l-14.464 49.28L278.656 188.224 278.656 188.224zM745.472 188.224l-55.744-4.608-14.528-49.28-76.736 113.344-26.752-6.72 93.504-134.848c9.152-12.032 23.872-8.256 26.112 6.528l14.656 52.224 65.344 1.728c14.848-1.152 18.496 6.4 7.872 17.024l-98.88 125.248-16.128-17.344L745.472 188.224 745.472 188.224zM745.472 188.224"  horiz-adv-x="1024" />

    
    <glyph glyph-name="jingdian" unicode="&#59134;" d="M798.464 140.330116 804.571429 140.330116C824.777143 140.330116 841.133714 156.550821 841.133714 176.599899 841.133714 196.648982 824.777143 212.878757 804.571429 212.878757L759.012571 212.878757C705.206857 317.9686 667.52 421.715789 645.485714 539.488263L658.267429 539.488263C678.482286 539.488263 694.866286 555.708967 694.866286 575.758048 694.866286 595.807129 678.482286 612.064121 658.267429 612.064121L634.148571 612.064121C628.909714 653.287209 625.334857 696.324693 623.515429 741.902332 622.72 761.951413 605.723429 777.537078 585.517714 776.747816 582.610286 776.638952 579.830857 776.103705 577.133714 775.359803L548.562286 775.359803 548.562286 847.944733C548.562286 867.957526 532.214857 884.214518 512.009143 884.214518 491.803429 884.214518 475.446857 867.957526 475.446857 847.944733L475.446857 775.359803 446.848 775.359803C444.16 776.103705 441.371429 776.638952 438.454857 776.747816 418.285714 777.537078 401.289143 761.951413 400.493714 741.902332 398.683429 696.324693 395.099429 653.287209 389.860571 612.064121L365.705143 612.064121C345.536 612.064121 329.142857 595.807129 329.142857 575.758048 329.142857 555.708967 345.536 539.488263 365.705143 539.488263L378.523429 539.488263C356.48 421.715789 318.784 317.9686 264.978286 212.878757L219.437714 212.878757C199.232 212.878757 182.838857 196.648982 182.838857 176.599899 182.838857 156.550821 199.232 140.330116 219.437714 140.330116L225.526857 140.330116C189.714286 77.987452 148.370286 13.948328 101.403429-54.871728 90.093714-71.455312 94.454857-94.008258 111.204571-105.266589 127.917714-116.488631 150.646857-112.161295 161.984-95.541424 217.974857-13.512561 267.282286 63.363416 309.293714 140.330116L714.715429 140.330116C756.726857 63.363416 806.034286-13.512561 862.025143-95.541424 873.334857-112.161295 896.091429-116.488631 912.804571-105.266589 929.517714-94.008258 933.915429-71.455312 922.569143-54.871728 875.602286 13.948328 834.267429 77.987452 798.464 140.330116L798.464 140.330116ZM471.716571 702.774872 552.292571 702.774872C554.203429 671.512821 556.937143 641.321264 560.484571 612.064121L463.524571 612.064121C467.072 641.321264 469.805714 671.512821 471.716571 702.774872L471.716571 702.774872ZM346.587429 212.878757C395.602286 314.711757 431.506286 419.638305 452.690286 539.488263L571.318857 539.488263C592.502857 419.638305 628.406857 314.711757 677.421714 212.878757L346.587429 212.878757 346.587429 212.878757ZM512.009143 67.745185C414.144 67.600033 328.786286 15.672005 295.003429-63.417534 287.186286-81.897165 295.972571-103.161889 314.596571-110.89122 333.248-118.629621 354.642286-109.911446 362.459429-91.431815 382.125714-43.758548 440.146286-4.694594 512.009143-4.839746 583.862857-4.694594 641.883429-43.758548 661.549714-91.431815 669.330286-109.911446 690.761143-118.629621 709.376-110.89122 728.036571-103.161889 736.786286-81.897165 729.005714-63.417534 695.222857 15.672005 609.828571 67.600033 512.009143 67.745185"  horiz-adv-x="1024" />

    
    <glyph glyph-name="zan" unicode="&#59367;" d="M853.333333-19.010133c0-50.244267-40.7552-90.999467-91.022222-90.999467l-364.088889 0c-0.113778 0-0.227556 0.022756-0.364089 0.022756l-112.867556 0c-0.182044 0-0.364089-0.022756-0.546133-0.022756l-159.288889 0 0 500.622222 159.288889 0c2.844444 0 5.552356-0.546133 8.328533-0.8192 28.444444 81.92 68.539733 195.447467 84.878222 232.948622 25.622756 58.914133 47.968711 78.051556 88.814933 86.471111 40.618667 8.351289 168.891733-51.245511 129.160533-209.237333-4.096-16.292978-9.898667-39.480889-15.997156-63.852089L830.577778 436.123733c50.267022 0 68.266667-40.7552 68.266667-91.044978L853.333333-19.010133zM261.688889 345.101511 171.326578 345.101511 170.666667 345.124267l0-409.6 0 0 0-0.045511 91.022222 0 0 0.045511 22.755556 0 0 0 0 405.048889 0.864711 3.868444c0.2048 0.568889-0.2048-0.568889 0 0C280.644267 346.011733 266.877156 345.101511 261.688889 345.101511zM807.822222 390.612622 523.377778 390.612622l34.133333 136.556089c19.069156 83.945244-49.607111 134.439822-68.266667 136.533333-13.061689 1.456356-50.176-5.211022-68.266667-45.533867-11.832889-26.373689-64.079644-171.190044-91.5456-247.785244 0.091022-0.864711 0.500622-1.615644 0.500622-2.503111l0-432.355556 0 0 91.022222 0 0-0.045511 0 0 341.333333 0c25.122133 0 45.511111 20.388978 45.511111 45.533867l45.511111 364.088889C853.333333 370.2464 832.944356 390.612622 807.822222 390.612622z"  horiz-adv-x="1024" />

    
    <glyph glyph-name="dingdan" unicode="&#58885;" d="M366.175 831.685l290.234 0 0 48.371-290.234 0 0-48.371zM390.361 734.941l241.861 0 0 48.371-241.861 0 0-48.371zM487.104 831.685l0-48.371 48.371 0 0 48.371-48.371 0zM753.153 759.126l48.371 0c54.363 0 96.745-42.382 96.745-96.745l0-604.654c0-66.457-54.474-120.931-120.931-120.931l-532.095 0c-66.457 0-120.931 54.474-120.931 120.931l0 604.654c0 54.363 42.382 96.745 96.745 96.745l48.371 0 0 48.371-48.371 0c-81.078 0-145.116-64.038-145.116-145.116l0-604.654c0-93.171 76.131-169.303 169.303-169.303l532.094 0c93.171 0 169.303 76.131 169.303 169.303l0 604.654c0 81.078-64.038 145.116-145.116 145.116l-48.371 0 0-48.371zM262.635 548.025l496.385 0 0-48.025-496.385 0 0 48.025zM262.161 381.923l496.385 0 0-48.025-496.385 0 0 48.025zM263.098 216.245l496.385 0 0-48.025-496.385 0 0 48.025z"  horiz-adv-x="1024" />

    
    <glyph glyph-name="lvyouxianlum" unicode="&#59070;" d="M512.347411 896c-282.591123 0-511.660262-229.05379-511.660262-511.645936 0-282.561447 229.069139-511.63161 511.660262-511.63161 282.558377 0 511.63161 229.070162 511.63161 511.63161C1023.977998 666.94621 794.905788 896 512.347411 896zM512.317735-67.348642c-249.466702 0-451.704752 202.236004-451.704752 451.703729 0 249.497401 202.237027 451.733405 451.704752 451.733405 249.494331 0 451.731358-202.236004 451.731358-451.733405C964.050117 134.886339 761.812066-67.348642 512.317735-67.348642zM696.245768 433.260937c0 58.193377-50.907437 105.335047-113.683179 105.335047-62.779835 0-113.685225-47.14167-113.685225-105.335047l0-158.004617c0-29.096688-25.451672-52.667523-56.839543-52.667523-31.420617 0-56.841589 23.570835-56.841589 52.667523L355.196232 433.260937 412.037821 433.260937l-85.290525 131.668809-85.261872-131.668809 56.839543 0 0-158.004617c0-58.193377 50.904367-105.33607 113.712855-105.33607 62.778812 0 113.681132 47.14167 113.681132 105.33607L525.718953 433.260937c0 29.096688 25.451672 52.6665 56.843636 52.6665 31.389918 0 56.838519-23.570835 56.838519-52.6665l0-158.004617-56.838519 0 85.290525-131.669832 85.261872 131.669832-56.869219 0L696.245768 433.260937z"  horiz-adv-x="1024" />

    
    <glyph glyph-name="jingyingzhucedi" unicode="&#58967;" d="M523.102 844.342c-260.446 0-471.579-211.133-471.579-471.579s211.133-471.579 471.579-471.579 471.579 211.133 471.579 471.579-211.106 471.579-471.579 471.579zM523.102-67.368c-243.092 0-440.131 197.039-440.131 440.131s197.066 440.158 440.131 440.158c243.092 0 440.131-197.039 440.131-440.131 0-243.119-197.039-440.158-440.131-440.158zM676.837 616.529c-84.884 84.884-222.019 84.184-306.904-0.674-84.911-84.857-85.477-222.343-0.62-307.173l153.384-152.522 153.6 153.708c84.911 84.884 85.396 221.804 0.539 306.661zM523.237 333.096c-72.192 0-130.749 58.503-130.749 130.695 0 72.219 58.557 130.776 130.749 130.776 72.219 0 130.749-58.53 130.749-130.776 0-72.165-58.53-130.695-130.749-130.695zM523.102 105.256c54.515 0 107.736-3.395 153.357-24.36-35.624 39.882-90.651 65.59-152.657 65.59-62.868 0-118.595-26.462-154.085-67.315 46.565 22.016 97.523 26.085 153.384 26.085z"  horiz-adv-x="1024" />

    
    <glyph glyph-name="dianziqianzheng" unicode="&#59036;" d="M1008.855 747.889l0-728.002c0.041-28.77-11.197-55.866-31.662-76.258-20.425-20.351-47.617-31.59-76.491-31.59l-258.014 0c13.329 13.894 24.198 30.118 31.744 48.141l226.228-0.041c16.036 0.041 31.046 6.252 42.366 17.532s17.554 26.236 17.554 42.175l0 728.084c0 15.979-6.193 30.977-17.513 42.256s-26.371 17.532-42.409 17.532l-226.228-0.041c-7.506 18.022-18.415 34.247-31.744 48.141l257.974 0c28.956 0 56.148-11.239 76.572-31.632 20.465-20.393 31.662-47.485 31.62-76.298l0 0zM866.458 438.484l0-392.485c0-9.318 7.588-16.837 16.897-16.837 9.353 0 16.897 7.519 16.897 16.837l0 392.485c0 9.318-7.548 16.837-16.897 16.837-9.309 0-16.897-7.519-16.897-16.837l0 0zM777.706 438.484l0-392.485c0-9.318 7.629-16.837 16.938-16.837 9.353 0 16.897 7.519 16.897 16.837l0 392.485c0 9.318-7.548 16.837-16.897 16.837-9.309 0-16.938-7.519-16.938-16.837l0 0zM688.951 438.484l0-392.485c0-9.318 7.588-16.837 16.938-16.837s16.897 7.519 16.897 16.837l0 392.485c0 9.318-7.548 16.837-16.897 16.837-9.353 0-16.938-7.519-16.938-16.837l0 0zM686.41 524.468l0 203.639 175.497 0c10.293 0 19.934-3.964 27.191-11.239 7.219-7.232 11.155-16.796 11.115-26.973l0.041-127.261c0-21.046-17.145-38.172-38.307-38.172l-175.537 0.001zM342.309 399.702c12.304 10.013 23.009 21.007 32.033 32.857-10.541 0.979-21.245 1.675-32.033 2.044l0-34.9zM411.989 427.327c10.991-2.043 21.367-4.454 31.169-7.316-17.225-12.383-37.405-22.067-59.591-28.32 10.951 11.118 20.507 23.009 28.421 35.636l0 0zM276.4 432.558c10.541 0.979 21.245 1.675 32.073 2.044l0-34.941c-12.345 10.053-23.051 21.046-32.073 32.898l0 0zM183.423 179.184c0-11.442-8.325-18.267-22.352-18.267-3.445 0-5.823 0.163-7.792 0.491l0 33.674c1.599 0.287 4.553 0.571 9.843 0.571 12.918 0 20.3-5.967 20.3-16.469l0 0zM238.709 427.327c7.956-12.628 17.513-24.48 28.381-35.595-22.106 6.252-42.242 15.937-59.51 28.279 9.762 2.861 20.221 5.274 31.13 7.316l0 0zM272.381 174.484l7.588-25.827-23.173 0c1.682 6.047 7.053 25.173 7.137 25.582 1.107 3.964 2.133 8.541 3.159 12.995 0.288 1.348 0.575 2.697 0.902 4.004 1.354-5.516 2.871-11.523 4.388-16.755l0 0zM383.692 666.073c21.326-6.047 40.85-15.202 57.623-26.931-9.556-2.697-19.769-5.025-30.513-6.947-7.669 11.975-16.774 23.295-27.109 33.878l0 0zM308.474 658.183l0-32.939c-10.377 0.327-20.672 0.979-30.801 1.922 8.736 11.157 19.071 21.497 30.801 31.018l0 0zM372.987 627.167c-10.089-0.941-20.3-1.594-30.678-1.922l0 32.898c11.649-9.482 22.022-19.86 30.678-30.977l0 0zM120.837 855.819c-28.914 0-56.065-11.239-76.53-31.59-20.465-20.393-31.744-47.485-31.662-76.258l0-728.002c-0.081-28.812 11.197-55.906 31.62-76.298s47.657-31.632 76.572-31.632l409.354 0.041c37.362 0.081 70.337 19.206 89.737 48.099 2.624 3.964 4.963 8.133 7.095 12.423 0.329 0.655 0.656 1.348 0.944 2.002 4.06 8.623 6.973 17.9 8.572 27.585 0.164 0.979 0.329 1.963 0.451 2.983 0.656 4.822 1.148 9.726 1.148 14.753l0 728.044c0 5.027-0.493 9.932-1.148 14.753-0.123 1.022-0.288 2.002-0.451 2.943-1.599 9.726-4.511 19.003-8.572 27.627-0.288 0.655-0.615 1.308-0.944 1.922-2.133 4.332-4.43 8.501-7.095 12.464-19.358 28.893-52.373 48.019-89.82 48.099l-409.271 0.042zM161.315 136.886c-3.322 0-5.947 0.123-8.038 0.449l0-43.523-30.309 0 0 123.05 1.231 0.163c10.048 1.716 22.721 2.535 37.649 2.535 17.184 0 29.733-3.27 38.307-10.096 8.654-6.661 13.617-17.369 13.617-29.383 0-12.506-4.183-23.131-11.729-29.998-9.433-8.621-23.499-13.198-40.725-13.198l0 0zM294.282 93.814l-9.434 31.305-32.893 0-8.697-31.305-31.538 0 38.061 124.849 38.47 0 39.004-124.849-32.974 0zM377.664 92.014c-14.683 0-28.627 4.004-35.355 7.765l-0.944 0.53 6.275 25.501 1.639-0.858c6.89-3.597 18.415-7.439 30.021-7.439 11.402 0 17.965 4.29 17.965 11.771 0 6.58-5.126 10.667-19.521 15.651-23.09 8.174-34.779 20.802-34.779 37.557 0 22.354 19.646 37.964 47.782 37.964 12.304 0 23.009-2.124 31.868-6.294l1.025-0.53-6.931-24.929-1.557 0.778c-4.183 2.124-12.959 5.638-24.773 5.638-11.319 0-16.365-5.189-16.365-10.298 0-6.621 5.456-9.767 21.778-15.815 22.516-8.297 32.524-19.945 32.524-37.761-0.002-18.1-13.249-39.23-50.653-39.23l0 0zM477.119 92.014c-14.642 0-28.627 4.004-35.395 7.765l-0.944 0.53 6.316 25.501 1.639-0.858c6.848-3.597 18.333-7.439 30.021-7.439 11.402 0 17.965 4.29 17.965 11.771 0 6.58-5.126 10.667-19.563 15.651-23.051 8.174-34.737 20.802-34.737 37.557 0 22.354 19.646 37.964 47.782 37.964 12.265 0 22.969-2.124 31.826-6.294l1.107-0.53-6.973-24.929-1.599 0.778c-4.183 2.124-12.918 5.638-24.732 5.638-11.279 0-16.365-5.189-16.365-10.298 0-6.621 5.456-9.767 21.778-15.815 22.475-8.297 32.524-19.945 32.524-37.761-0.001-18.1-13.29-39.23-50.653-39.23l0 0zM489.628 415.639c-1.025-1.266-2.173-2.37-3.445-3.31-38.961-38.13-96.545-62.405-160.814-62.405-64.719 0-122.711 24.603-161.674 63.22-0.451 0.409-0.902 0.778-1.313 1.227-20.836 21.046-35.886 46.179-43.556 73.683l35.355 0c5.536-15.202 13.943-29.424 24.853-42.133 13.329 5.027 28.054 9.235 43.925 12.586-3.897 9.562-6.89 19.493-9.187 29.547l34.82 0c2.256-8.091 4.921-16.1 8.489-23.825 16.693 2.083 33.918 3.393 51.389 3.924l0 19.902 33.836 0 0-19.902c17.431-0.53 34.657-1.839 51.348-3.924 3.529 7.725 6.234 15.733 8.489 23.825l34.779 0c-2.297-10.053-5.291-19.985-9.146-29.547 15.872-3.351 30.637-7.559 43.925-12.586 10.909 12.71 19.317 26.931 24.853 42.133l35.355 0c-7.504-26.972-22.105-51.654-42.285-72.415l0 0zM537.695 528.882c0-5.638-0.37-11.198-0.944-16.714l-422.724 0c-0.656 5.517-0.985 11.074-0.985 16.714 0 5.638 0.329 11.157 0.944 16.674l422.806 0c0.576-5.517 0.902-11.035 0.902-16.674l0 0zM496.559 569.627c-5.741 15.815-14.602 30.528-26.126 43.605-13.124-4.822-27.643-8.909-43.268-12.138 4.225-10.176 7.424-20.72 9.884-31.469l-34.901 0c-2.502 8.828-5.497 17.452-9.474 25.827-16.323-2.044-33.262-3.27-50.365-3.802l0-22.028-33.836 0 0 22.028c-17.145 0.53-34.082 1.759-50.405 3.802-3.979-8.377-7.012-16.999-9.474-25.827l-34.945 0c2.421 10.747 5.66 21.294 9.884 31.469-15.585 3.228-30.105 7.316-43.229 12.138-11.525-13.076-20.342-27.831-26.126-43.605l-35.355 0c7.792 27.995 23.296 53.536 44.663 74.786 0.493 0.571 1.068 1.062 1.639 1.552 38.961 37.843 96.3 61.913 160.238 61.913 63.899 0 121.193-24.069 160.158-61.833 0.656-0.53 1.27-1.062 1.844-1.716 21.326-21.21 36.748-46.752 44.542-74.704l-35.351 0.001zM209.426 639.14c16.816 11.689 36.298 20.882 57.582 26.891-10.336-10.583-19.399-21.865-27.069-33.839-10.703 1.964-20.958 4.252-30.513 6.948l0 0z"  horiz-adv-x="1024" />

    
    <glyph glyph-name="baoxianzongshu" unicode="&#59094;" d="M796.574802 832.360588 224.516962 832.360588c-88.477101 0-160.878061-72.442916-160.878061-160.995741l0-572.385299c0-88.528266 72.40096-160.971182 160.878061-160.971182l572.056817 0c88.478124 0 160.903643 72.442916 160.903643 160.971182L957.477422 671.364847C957.478446 759.917672 885.052926 832.360588 796.574802 832.360588zM676.706761 165.863864c-50.697659-41.708937-133.036969-99.494015-166.809143-99.494015-33.757848 0-115.433032 57.624419-165.724439 98.991572-83.826174 68.959581-145.845693 191.323467-145.845693 384.89923 0 75.729775 15.623839 124.579343 15.623839 124.579343s84.949764-22.50455 155.779949-22.50455c70.847581 0 140.16532 29.384237 140.16532 29.384237s72.351841-29.384237 141.685953-29.384237c69.325925 0 155.788136 22.50455 155.788136 22.50455s15.606443-50.043766 15.606443-124.579343C822.978149 356.685911 760.662895 234.968755 676.706761 165.863864zM279.356964 486.660124c10.128685-117.557416 49.236378-206.971865 114.614387-260.757862 49.822732-40.99467 95.053889-69.51319 115.917056-78.936817 21.084201 9.533121 67.521836 38.706557 117.022227 79.429027 65.565275 53.973262 104.867396 143.506415 115.063619 260.516362L279.356964 486.660124zM411.853627 439.781444l190.992939 0.12996 0.046049-71.619154-190.989869-0.132006L411.853627 439.781444zM411.983587 248.835577l-0.049119 71.617108 190.990892 0.130983 0.051165-71.620178L411.983587 248.835577z"  horiz-adv-x="1024" />

    
    <glyph glyph-name="iconfangdajing" unicode="&#58912;" d="M888.91386 157.781792 669.412634 375.920998c-0.89437 0.915859-1.990331 1.518586-2.951215 2.347464 26.89351 44.669362 42.634006 96.783277 42.634006 152.697751 0 163.965375-132.913149 296.878524-296.877501 296.878524-163.967422 0-296.879548-132.913149-296.879548-296.878524s132.912126-296.878524 296.879548-296.878524c53.855582 0 104.22783 14.555507 147.779741 39.637766 1.205455-1.451048 2.190899-3.039219 3.554966-4.40431l219.47769-218.113623c27.476795-27.320229 73.510224-25.666566 102.753245 3.755534C915.026588 84.407668 916.414191 130.44212 888.91386 157.781792zM412.217924 309.341626c-122.406864 0-221.626633 99.220792-221.626633 221.62561 0 122.404818 99.219769 221.624587 221.626633 221.624587 122.402771 0 221.624587-99.219769 221.624587-221.624587C633.842511 408.562419 534.620695 309.341626 412.217924 309.341626z"  horiz-adv-x="1024" />

    
    <glyph glyph-name="daba" unicode="&#59141;" d="M704.192 896 319.808 896C213.888 896 128 809.92 128 703.808l0-639.36C128 28.864 156.672 0.064 192 0l0-63.424C192-99.648 220.608-128 255.936-128l64.128 0C355.648-128 384-99.072 384-63.424L384 0l256 0 0-63.424C640-99.648 668.608-128 703.936-128l64.128 0C803.648-128 832-99.072 832-63.424L832 0c34.944 0.064 64 28.928 64 64.448l0 639.36C896 810.112 810.112 896 704.192 896zM352.32 64 247.552 64C216.832 64 192 88.704 192 119.04l0 17.92c0 30.4 23.552 47.168 52.48 37.568l109.504-36.48C370.56 132.48 384 113.152 384 96 384 78.336 370.176 64 352.32 64zM832 119.04c0-30.336-24.832-55.04-55.552-55.04L671.68 64C653.824 64 640 78.336 640 96c0 17.152 13.44 36.48 30.016 41.984l109.504 36.48C808.448 184.128 832 167.36 832 136.96L832 119.04zM832 256 192 256 192 704c0 24.256 8.32 53.824 64 64 64 0 480 0 512 0 47.168-10.176 64-40.96 64-64L832 256z"  horiz-adv-x="1024" />

    
    <glyph glyph-name="iconxianlufeiji" unicode="&#59142;" d="M273.774829-96.110709 376.109542-96.110709l229.655494 409.414577 264.125563 0c0 0 153.503093 0 153.503093 71.573105 0 71.633481-153.503093 71.633481-153.503093 71.633481l-264.125563 0L376.109542 865.861586 273.774829 865.861586 401.088446 456.510454 217.554386 456.510454l-115.193579 102.403275L0.020978 558.913728l81.932034-173.975357L0.020978 210.900593l102.33983 0 115.193579 102.403275L401.088446 313.303868 273.774829-96.110709 273.774829-96.110709zM273.774829-96.110709"  horiz-adv-x="1024" />

    
    <glyph glyph-name="chenggong" unicode="&#59165;" d="M508.212232 831.919543c-249.054309 0-446.808232-200.647833-446.808232-448.037223 0-247.388367 200.558805-448.037223 447.949218-448.037223 247.388367 0 448.037223 200.559828 448.037223 448.037223C957.397604 631.27171 757.18263 831.919543 508.212232 831.919543L508.212232 831.919543 508.212232 831.919543zM794.455535 504.726595c0 0-273.000698-288.874223-307.901579-323.774081-24.734334-24.733311-55.422264-16.225543-68.405973-3.329838L223.203036 356.172211c-17.97949 18.850323-17.97949 49.460482 0 68.311829 17.980513 18.856463 47.003524 18.856463 64.98199 0l161.451112-145.048537c0 0.265036 279.83229 293.603945 279.83229 293.603945 17.978467 18.85544 47.00557 18.85544 64.987107 0C812.430932 554.184007 812.430932 523.583059 794.455535 504.726595L794.455535 504.726595 794.455535 504.726595zM794.455535 504.726595"  horiz-adv-x="1024" />

    
    <glyph glyph-name="kuaisuyuyuejiyang" unicode="&#59129;" d="M407.275355 276.269393c-0.410346 0.923022-1.326205 1.517563-2.337231 1.517563-0.00307 0-0.00614 0-0.010233 0l-159.243841-0.613984 107.910709 183.752024c0.663102 1.12973 0.366344 2.578732-0.688685 3.355421-1.054005 0.776689-2.526543 0.632403-3.408633-0.336668L123.301745 215.771531c-0.672312-0.73678-0.854461-1.797949-0.466628-2.716878 0.387833-0.918929 1.27504-1.528819 2.27174-1.562589l144.594189-4.810562L161.535535 10.78795c-0.627287-1.13587-0.303922-2.562359 0.751107-3.316535 0.448208-0.321318 0.969071-0.477884 1.486864-0.477884 0.699941 0 1.393743 0.285502 1.895163 0.838088l241.163595 265.676895C407.513786 274.260643 407.687748 275.342278 407.275355 276.269393zM872.645338 510.130675c-16.412808 46.87561-41.307801 89.461521-73.994248 126.57479-33.845853 38.432311-74.594929 69.27169-121.110335 91.663676-46.51643 22.396079-96.037287 35.009352-147.1852 37.490869-49.39806 2.397606-98.203626-4.711302-145.079236-21.12718-46.873564-16.413831-89.458451-41.309848-126.57172-73.996295-38.430264-33.844829-69.27169-74.591859-91.670839-121.112382-25.76071-53.546543-38.508036-110.565165-37.886889-169.472809 0.104377-9.890254 8.233522-17.818831 18.095124-17.717524 9.890254 0.104377 17.822924 8.205892 17.718547 18.095124-0.561795 53.357232 10.994402 105.024985 34.346249 153.564491 82.930781 172.238806 290.496164 244.914012 462.699154 162.005744 83.435271-40.163745 146.236596-110.410646 176.836521-197.804065 30.599925-87.393419 25.330922-181.461865-14.838963-264.880763-82.879616-172.183548-290.438858-244.856707-462.686874-161.992441-8.91095 4.28663-19.612687 0.537236-23.90034-8.374738-4.287653-8.912997-0.538259-19.61371 8.374738-23.901363 46.517453-22.37766 96.036263-34.981722 147.182131-37.46017 6.235005-0.301875 12.45466-0.452301 18.668175-0.452301 43.011606 0 85.453231 7.234775 126.407991 21.571295 46.876634 16.407692 89.459474 41.296545 126.569674 73.975828 38.430264 33.840736 69.267597 74.584696 91.656513 121.098056 22.396079 46.509267 35.010375 96.02603 37.493939 147.172921C896.165008 414.441313 889.05917 463.254042 872.645338 510.130675zM510.674307 657.238105c-9.890254 0-17.907858-8.017604-17.907858-17.907858l0-255.570723c0-9.890254 8.017604-17.907858 17.907858-17.907858l177.670515 0c9.890254 0 17.907858 8.017604 17.907858 17.907858s-8.017604 17.907858-17.907858 17.907858L528.582165 401.667382l0 237.662865C528.582165 649.220501 520.564561 657.238105 510.674307 657.238105z"  horiz-adv-x="1024" />

    
    <glyph glyph-name="shouji" unicode="&#59169;" d="M709.745736 833.610044 316.336692 833.610044c-46.366004 0-84.302011-37.936007-84.302011-84.302011l0-730.616066c0-46.366004 37.936007-84.302011 84.302011-84.302011l393.409045 0c46.366004 0 84.302011 37.936007 84.302011 84.302011L794.047748 749.308033C794.047748 795.674037 756.11174 833.610044 709.745736 833.610044zM400.638703 791.459039l224.805022 0 0-28.101012L400.638703 763.358027 400.638703 791.459039zM513.041726-9.409045c-31.038924 0-56.201 25.162076-56.201 56.201s25.162076 56.201 56.201 56.201c31.038924 0 56.201-25.162076 56.201-56.201S544.080649-9.409045 513.041726-9.409045zM737.846748 159.194978l-449.610044 0L288.236704 721.208045l449.610044 0L737.846748 159.194978z"  horiz-adv-x="1024" />

    
    <glyph glyph-name="duoxuan12px" unicode="&#59095;" d="M738.816 610.944l75.776-75.712-378.176-378.112L209.472 383.936 285.056 459.52l151.168-151.104L738.816 610.944zM965.824 610.88l0-453.824c0-125.312-101.568-226.944-226.944-226.944L285.056-69.888c-125.312 0-226.88 101.632-226.88 226.944L58.176 610.88c0 125.312 101.568 226.944 226.88 226.944l453.824 0C864.256 837.824 965.824 736.192 965.824 610.88zM890.176 610.88c0 83.456-67.84 151.296-151.296 151.296L285.056 762.176c-83.392 0-151.296-67.84-151.296-151.296l0-453.824c0-83.456 67.84-151.296 151.296-151.296l453.824 0c83.392 0 151.296 67.84 151.296 151.296L890.176 610.88z"  horiz-adv-x="1024" />

    
    <glyph glyph-name="weixinzhifu" unicode="&#59102;" d="M393.371826 264.370087c-60.794435-34.014609-69.810087 19.077565-69.810087 19.077565l-76.198957 178.376348c-29.317565 84.769391 25.377391 38.221913 25.377391 38.221913s46.925913-35.617391 82.543304-57.321739c35.59513-21.704348 76.176696-6.366609 76.176696-6.366609L929.613913 667.024696C837.698783 781.734957 685.879652 856.754087 514.003478 856.754087c-280.509217 0-507.881739-199.635478-507.881739-445.907478 0-141.645913 75.286261-267.731478 192.556522-349.42887l-21.147826-121.967304c0 0-10.306783-35.59513 25.421913-19.077565 24.353391 11.241739 86.416696 51.600696 123.369739 76.154435 58.078609-20.301913 121.366261-31.588174 187.703652-31.588174 280.486957 0 507.904 199.635478 507.904 445.907478 0 71.346087-19.166609 138.707478-53.114435 198.500174C810.117565 513.558261 440.943304 290.927304 393.371826 264.370087z"  horiz-adv-x="1024" />

    
    <glyph glyph-name="xinlangdenglu" unicode="&#59113;" d="M512 896C229.640192 896 0 666.279936 0 384c0-282.320896 229.640192-512 512-512 282.241024 0 512 229.679104 512 512C1024 666.279936 794.241024 896 512 896zM512-99.719168C245.280768-99.719168 28.239872 117.239808 28.239872 384S245.280768 867.680256 512 867.680256c266.63936 0 483.680256-216.920064 483.680256-483.680256S778.63936-99.719168 512-99.719168zM678.080512 391.23968c-26.88 5.240832-13.760512 19.679232-13.760512 19.679232s26.241024 43.319296-5.199872 74.799104c-38.959104 39.000064-133.840896-4.960256-133.840896-4.960256-36.23936-11.239424-26.560512 5.16096-21.520384 32.960512 0 32.800768-11.200512 88.32-107.599872 55.519232-96.39936-32.960512-179.040256-148.52096-179.040256-148.52096-57.479168-76.679168-49.999872-136.040448-49.999872-136.040448 14.399488-130.95936 153.6-166.920192 261.840896-175.439872 113.840128-8.96 267.52 39.23968 314.159104 138.24C789.76 346.640384 705.040384 385.880064 678.080512 391.23968zM437.440512 146.200576c-113.119232-5.320704-204.439552 51.359744-204.439552 126.840832s91.32032 136.040448 204.439552 141.279232c113.119232 5.199872 204.640256-41.40032 204.640256-116.760576C642.080768 222.119936 550.559744 151.279616 437.440512 146.200576zM414.799872 364.560384c-113.680384-13.279232-100.560896-119.840768-100.560896-119.840768s-1.200128-33.72032 30.480384-50.839552c66.56-36.079616 135.041024-14.239744 169.680896 30.439424S528.719872 377.800704 414.799872 364.560384zM386.080768 215.08096c-21.200896-2.480128-38.320128 9.79968-38.320128 27.559936 0 17.639424 15.280128 36.159488 36.481024 38.4 24.32 2.279424 40.239104-11.759616 40.239104-29.519872C424.480768 233.84064 407.279616 217.520128 386.080768 215.08096zM453.199872 272.19968c-7.28064-5.400576-16.001024-4.640768-19.841024 1.800192-3.999744 6.279168-2.480128 16.359424 4.800512 21.639168 8.400896 6.279168 17.119232 4.519936 20.959232-1.800192C462.96064 287.399936 460.161024 277.76 453.199872 272.19968zM733.519872 437.36064c9.119744 0 16.879616 6.79936 18.239488 15.640576 0.239616 0.641024 0.239616 1.23904 0.239616 1.959936 13.840384 124.880896-102.4 103.399424-102.4 103.399424-10.319872 0-18.561024-8.359936-18.561024-18.75968 0-10.28096 8.239104-18.640896 18.561024-18.640896 83.439616 18.440192 65.120256-64.960512 65.120256-64.960512C714.719232 445.640704 723.120128 437.36064 733.519872 437.36064L733.519872 437.36064zM719.919104 655.31904c-40.159232 9.40032-81.52064 1.32096-93.04064-0.960512-0.88064-0.04096-1.759232-0.88064-2.56-1.040384-0.39936-0.120832-0.720896-0.520192-0.720896-0.520192-11.440128-3.239936-19.759104-13.799424-19.759104-26.279936 0-14.880768 12.161024-27.119616 27.119616-27.119616 0 0 14.639104 2.000896 24.559616 5.840896 9.84064 3.960832 93.04064 2.95936 134.320128-66.439168 22.64064-50.679808 10.000384-84.559872 8.400896-89.99936 0 0-5.359616-13.160448-5.359616-26.079232 0-14.999552 11.999232-24.399872 26.959872-24.399872 12.480512 0 22.960128 1.72032 26.079232 22.839296l0.159744 0C890.400768 568.999936 791.840768 638.519296 719.919104 655.31904L719.919104 655.31904zM688.080896 613.840896"  horiz-adv-x="1024" />

    
    <glyph glyph-name="lunchuan" unicode="&#59143;" d="M679.977-45.31l-0.869-0.579c-56.196-54.863-148.871-54.863-204.777 0.579-26.561 26.909-70.115 26.909-97.198 1.043l-0.697-1.043-0.695-0.579c-56.313-54.863-148.812-54.863-204.661 0.579-27.025 27.372-71.332 26.909-97.951 0-14.905-14.267-38.624-14.267-53.586 0-14.441 15.542-14.441 38.682 0 54.282 40.828 40.595 104.041 53.53 158.149 30.678l2.204-0.523c16.354-7.539 31.26-17.167 43.554-29.345-0.579 54.573-3.247 96.561-12.295 137.215-10.847 47.554-31.781 96.271-71.101 163.775-10.207 17.747-4.292 41.118 14.034 51.615l2.089 1.623 71.796 41.175 0 160.299c0 12.643 10.613 22.85 22.907 22.85l101.78 0 0 72.668c0 12.323 10.207 22.269 22.501 22.269l103.286 0 0 105.2c0 12.323 10.207 22.82 23.198 22.82 12.353 0 22.444-10.497 22.444-22.82l0-105.2 103.056 0c12.643 0 22.85-9.947 22.85-22.269l0-72.668 101.605 0c12.642 0 23.255-10.207 23.255-22.85l0-160.297 73.421-42.799c18.326-9.859 24.242-33.289 14.267-51.615l-0.869-0.579c-32.708-57.53-52.658-100.794-64.781-142.549-11.307-39.436-15.658-77.943-17.167-126.081 19.312-6.844 36.479-17.746 51.557-32.592 26.966-27.373 71.564-27.373 98.532 0 14.439 14.267 38.739 14.267 53.182 0 15.077-15.6 15.077-38.739 0-54.282-40.828-40.596-104.158-53.587-158.093-31.201l0 0c-17.805 8.003-33.926 18.211-47.034 31.201-26.677 26.909-70.346 26.909-97.429 1.043l-0.465-1.044zM524.09 462.719l0 0 0-450.498 4.293-3.248c26.387-26.91 70-27.373 96.85-0.579l1.103 0.579c21.863 21.574 49.585 34.972 78.001 39.552 1.797 52.718 6.96 95.517 19.661 139.593 11.54 39.843 28.302 79.337 54.572 127.471l-254.48 147.133zM478.448 41.218l0 0 0 421.501-253.898-147.132c31.2-58.341 49.586-104.562 60.49-152.233 11.657-50.803 13.803-101.955 14.267-170.505 8.64 3.538 16.063 8.003 22.733 15.542l1.044 0.579 0.405 0.233c40.654 39.9 102.187 52.774 154.96 32.014l0 0zM273.44 431.519l0 0 209.301 120.512c11.772 6.959 26.329 6.496 37.58 0l208.778-120.512 0 111.118-101.954 0c-12.411 0-22.329 10.438-22.329 22.85l0 72.318c-68.782 0-137.91 0-206.518 0l0-72.319c0-12.411-10.263-22.85-23.139-22.85l-101.722 0 0-111.117 0.002 0z"  horiz-adv-x="1024" />

    
    <glyph glyph-name="lvyoutiandi" unicode="&#59073;" d="M752.7906 292.897096 536.551674 48.461991l22.005176-31.507598 157.736511 0 280.645818 0L752.7906 292.897096zM490.0465 16.954393c0 0-9.565866 13.134135-12.881378 19.005866-0.852414 1.578961-1.799996 3.092431-2.683109 4.672416-3.916193 7.008624-7.737218 14.20656-11.397584 21.467941-0.222057 0.444115-0.444115 0.822738-0.696872 1.263783-11.903098 23.741727-22.636556 48.494481-32.265868 73.817216-0.600681 1.639337-1.200338 3.218298-1.768273 4.860704-2.494821 6.630001-4.925173 13.32447-7.262404 20.016893-0.820692 2.399653-1.641383 4.798283-2.462075 7.262404-2.02103 5.871731-3.978614 11.80793-5.9055 17.743106-0.915859 2.907213-1.76725 5.809309-2.683109 8.652054-1.673106 5.491061-3.347235 10.92277-4.955872 16.353456-44.13929 150.535505-53.485145 235.024781-47.89687 259.273045 0.379647 1.64036 0.474814 3.598968 0.379647 5.809309 22.131043 2.461051 54.998615 2.335185 93.611028-3.598968 55.755862-8.588609 124.078946-47.928592 131.181715-33.973766 3.694135 7.137561-51.998281 69.206198-97.241718 88.719624 57.998949 9.092076 108.797915 4.042059 139.958612 3.346211 17.839297-0.442068 35.677571-2.336208 38.360679 0.25378 5.589298 5.493108-28.542056 26.14138-52.378951 33.908274-17.017582 5.558599-54.967916 20.584827-113.597221 6.947226-54.241368-12.628622-103.494119-41.612747-130.678248-59.797921 0.316202 0.756223 0.599657 1.388627 0.88516 2.146896 33.023114 88.274486 115.77584 117.321032 153.473417 136.833435 13.858636 7.135514 28.950356 12.755512 28.79379 16.417925-0.347924 7.765871-43.444465 13.637602-67.943438 11.175527-17.522072-1.76725-58.755172-3.094478-91.716888-41.2331-13.987572-16.164145-24.248264-35.299971-31.857569-54.116525-2.556219 35.930327-9.819646 78.868255-28.761044 112.396883-31.28861 55.380308-90.802052 54.874795-100.021018 54.370305-9.250688-0.50756-7.167237-22.544459 2.556219-51.274804 9.724479-28.729322 28.225855-53.357232 50.76929-93.89653 7.293103-13.133112 17.364483-30.497595 27.594475-47.989991-17.333784 20.207227-40.255843 41.612747-67.597561 54.68446-45.49517 21.720697-83.792405 6.313799-100.493785 0.88516-23.460318-7.578606-60.557214-30.246885-57.777915-37.508265 1.325182-3.409656 17.45965-2.524496 32.960693-3.474125 42.369993-2.713808 129.825834 3.916193 195.496509-63.712067 0.883113-0.88516 1.641383-1.642406 2.494821-2.463098-31.382754 11.618619-82.561367 26.89965-134.751007 27.215852-60.208267 0.3776-93.89653-22.606881-109.271706-31.761378-21.532409-12.818957-50.262754-40.538275-43.570331-44.64378 3.1569-1.956561 20.11206 3.916193 37.414121 8.207939 46.728254 11.683087 136.582725 43.823088 240.297878 19.702738-31.099299-6.505158-72.269977-24.058952-96.202039-70.913073-21.754466-42.62275-7.419993-143.337569 1.261737-145.294131 15.312754-3.409656 28.478612 74.320683 57.368592 122.752742 21.058618 35.299971 43.032072 61.629639 59.292408 76.784804-7.324826-146.684804 7.987928-206.798926 30.404474-304.483736l0.030699-0.064468c8.335852-36.245506 17.61724-68.89102 27.120684-97.936543 0.157589-0.442068 0.316202-0.884137 0.443092-1.388627 1.735527-5.240351 3.473101-10.419304 5.208629-15.406898 0.221034-0.571005 0.379647-1.074472 0.568958-1.642406 1.768273-4.988618 12.219299-30.372751 12.219299-30.372751L490.0465 16.955416 490.0465 16.954393zM380.332726 505.063263c2.556219 0.88516 63.460334 22.101367 106.460684-4.042059 2.337231-1.451048 3.062755-4.482081 1.675152-6.819313-0.948605-1.514493-2.558265-2.336208-4.231371-2.336208-0.884137 0-1.768273 0.190335-2.557242 0.695848-39.087227 23.806195-97.495498 3.40761-98.032734 3.1569-2.587941-0.886183-5.39794 0.442068-6.314823 3.031033C376.417557 501.338429 377.743762 504.115682 380.332726 505.063263L380.332726 505.063263zM285.583782 452.527746c-0.474814-0.378623-47.863101-35.172057-57.113789-81.96171-0.474814-2.338255-2.526543-3.979638-4.831029-3.979638-0.317225 0-0.63138 0-0.948605 0.064468-2.683109 0.567935-4.418636 3.155876-3.883447 5.809309 10.008958 50.6424 58.914808 86.571704 60.998259 88.023776 2.179642 1.642406 5.273097 1.134847 6.883781-1.075495C288.267914 457.199139 287.762401 454.105684 285.583782 452.527746L285.583782 452.527746zM333.541027 542.444639l-0.252757 0c-2.619664 0-4.76656 2.02103-4.924149 4.673439-4.38896 91.306542-67.565838 164.30102-68.197218 165.058266-1.799996 2.02103-1.609661 5.116531 0.442068 6.948249 2.083451 1.76725 5.146207 1.577938 6.946202-0.442068 2.714831-3.095501 66.079998-76.341712 70.65827-171.121356C338.341357 544.844292 336.257905 542.571529 333.541027 542.444639L333.541027 542.444639zM227.995179 16.954393l127.394459 0c-20.269649 31.572066-29.140691 58.156538-41.169655 101.789291L227.995179 16.954393 227.995179 16.954393zM447.644785 260.881938c13.385868-73.120344 14.302751-109.430318 51.082422-169.354106l0.347924 0.443092 148.70481 176.742377-98.504478 115.679649L447.644785 260.881938 447.644785 260.881938zM447.644785 260.881938"  horiz-adv-x="1024" />

    
    <glyph glyph-name="iconfont" unicode="&#59096;" d="M738.88 837.824 285.056 837.824c-125.312 0-226.88-101.632-226.88-226.944l0-453.824c0-125.312 101.568-226.943 226.88-226.943L738.88-69.887c125.376 0 226.944 101.632 226.944 226.943L965.824 610.88C965.824 736.192 864.256 837.824 738.88 837.824zM890.176 157.056c0-83.456-67.904-151.296-151.296-151.296L285.056 5.76c-83.456 0-151.296 67.84-151.296 151.296L133.76 610.88c0 83.456 67.904 151.296 151.296 151.296L738.88 762.176c83.456 0 151.296-67.84 151.296-151.296L890.176 157.056z"  horiz-adv-x="1024" />

    
    <glyph glyph-name="guonei" unicode="&#59136;" d="M808.67328 78.78656l57.16992 0 0 57.16992-57.16992 0L808.67328 78.78656 808.67328 78.78656zM522.79296 21.61664l114.35008 0 0-57.18016L522.79296-35.56352 522.79296 21.61664 522.79296 21.61664zM970.24 696.13568l-111.09376 94.45376c-8.17152 6.912-19.48672 8.7552-29.44 4.63872l-85.97504-35.51232-69.31456-43.4688c-9.15456-5.80608-14.22336-16.26112-13.08672-27.02336l8.64256-84.16256-79.99488-54.9376-94.27968-11.17184-75.35616 40.93952-46.81728 91.33056c-7.08608 13.81376-23.9616 19.42528-37.95968 12.5952l-101.61152-49.55136c-9.8304-4.79232-16.05632-14.7456-16.05632-25.66144l0-37.50912-33.91488-33.06496-38.52288 0c-7.38304 0-14.53056-2.85696-19.85536-7.99744l-51.44576-49.58208c-11.66336-11.25376-11.66336-29.89056 0-41.14432l45.1072-43.4688 25.9072-122.68544c1.36192-6.4512 4.90496-12.29824 10.10688-16.41472l93.81888-75.17184c5.09952-4.07552 11.37664-6.30784 17.90976-6.30784l103.36256 0 0-62.18752c0-15.7696 12.81024-28.60032 28.59008-28.60032l115.0976 0 52.08064-35.44064c9.03168-6.18496 20.74624-6.63552 30.23872-1.20832l70.77888 40.41728 97.6384 36.7616c5.21216 1.95584 9.65632 5.4272 12.98432 9.92256l61.48096 84.3776c3.55328 4.90496 5.48864 10.79296 5.48864 16.7936l0 83.26144c0 7.7312-3.15392 15.09376-8.64256 20.44928l-35.91168 34.90816 45.45536 29.92128c4.21888 2.7648 7.59808 6.6048 9.8816 11.10016l31.90784 63.66208 80.68096 56.1152c7.65952 5.38624 12.22656 14.15168 12.22656 23.47008L980.34688 674.3552C980.35712 682.78272 976.64 690.69824 970.24 696.13568L970.24 696.13568zM923.1872 573.98272l-74.38336-51.88608c-3.8912-2.72384-7.09632-6.37952-9.20576-10.5984l-31.68256-63.25248-68.94592-45.2096c-15.2576-10.07616-17.31584-31.62112-4.22912-44.38016l52.77696-51.36384 0-61.8496-50.944-69.96992-93.70624-35.69664-59.24864-33.47456-44.63616 30.4128c-4.75136 3.24608-10.3424 4.94592-16.128 4.94592l-95.36512 0 0 62.22848c0 15.7696-12.81024 28.55936-28.59008 28.55936L277.01248 232.448l-78.03904 62.50496-25.5488 121.32352c-1.20832 5.632-4.02432 10.76224-8.192 14.68416l-30.0032 29.02016 26.23488 20.95104 34.24256 0c7.44448 0 14.6432 2.93888 19.95776 8.15104l50.82112 49.55136c5.4272 5.3248 8.58112 12.71808 8.58112 20.40832l-4.73088 8.99072 65.16736 52.0704 38.02112-74.14784c2.62144-5.08928 6.73792-9.3184 11.776-12.04224l91.12576-49.59232c5.21216-2.75456 11.15136-3.88096 17.03936-3.20512l110.2336 13.08672c4.56704 0.57344 8.98048 2.19136 12.81024 4.79232l99.81952 68.49536c8.64256 5.95968 13.32224 16.0768 12.22656 26.49088l-8.57088 83.4048 49.9712 31.744 65.41312 26.64448 87.81824-74.68032L923.1872 573.98272 923.1872 573.98272zM923.1872 573.98272"  horiz-adv-x="1024" />

    
    <glyph glyph-name="weixindenglu" unicode="&#59114;" d="M511.437182 894.924505c-281.134958 0-509.84901-228.720192-509.84901-509.84901 0-281.141098 228.714052-509.85515 509.84901-509.85515s509.84901 228.714052 509.84901 509.85515C1021.286192 666.204313 792.57214 894.924505 511.437182 894.924505zM511.437182-112.190943C237.248426-112.190943 14.176884 110.879576 14.176884 385.075495 14.176884 659.264251 237.248426 882.335792 511.437182 882.335792s497.260298-223.071541 497.260298-497.260298C1008.697479 110.879576 785.625938-112.190943 511.437182-112.190943zM668.959821 471.852884c-120.494305 0-215.398792-80.842213-215.398792-180.033329 0-99.345636 94.903463-180.022073 215.398792-180.022073 25.224498 0 50.672076 6.231935 75.987648 12.450567l69.468165-37.260625-19.045775 61.994959c50.842968 37.350676 88.712461 86.895069 88.712461 142.838196C884.083343 391.009647 782.765797 471.852884 668.959821 471.852884zM599.123266 322.873828c-12.605086 0-25.328875 12.270465-25.328875 24.810059 0 12.372795 12.723789 24.810059 25.328875 24.810059 19.151176 0 31.705096-12.437264 31.705096-24.810059C630.828362 335.144292 618.275465 322.873828 599.123266 322.873828zM738.429009 322.873828c-12.526291 0-25.159006 12.270465-25.159006 24.810059 0 12.372795 12.631692 24.810059 25.159006 24.810059 18.981307 0 31.705096-12.437264 31.705096-24.810059C770.134105 335.144292 757.409292 322.873828 738.429009 322.873828zM655.960763 476.676749c8.212032 0 16.330944-0.578168 24.384363-1.451048-21.919219 99.948363-131.014916 174.213787-255.536954 174.213787-139.225925 0-253.267261-92.934622-253.267261-210.974016 0-68.1481 37.948287-124.078946 101.343129-167.481456l-25.328875-74.624605 88.541569 43.48028c31.67849-6.129604 57.099463-12.450567 88.711438-12.450567 7.949043 0 15.832594 0.385786 23.650653 0.989537-4.957919 16.57449-7.817036 33.945113-7.817036 51.971675C440.641789 388.740978 535.64963 476.676749 655.960763 476.676749zM519.77815 543.951969c19.072381 0 31.704073-12.282744 31.704073-30.939663 0-18.61701-12.631692-31.055297-31.704073-31.055297-18.981307 0-38.027082 12.437264-38.027082 31.055297C481.751069 531.669224 500.796844 543.951969 519.77815 543.951969zM342.537424 481.957009c-18.981307 0-38.145785 12.437264-38.145785 31.055297 0 18.656919 19.164478 30.939663 38.145785 30.939663s31.612998-12.282744 31.612998-30.939663C374.150422 494.395296 361.51873 481.957009 342.537424 481.957009z"  horiz-adv-x="1024" />

    
    <glyph glyph-name="qqdenglu" unicode="&#59115;" d="M511.306198 893.953388c-280.7021 0-509.076414-228.367151-509.076414-509.076414S230.603075-124.198417 511.306198-124.198417s509.076414 228.367151 509.076414 509.076414S792.008298 893.953388 511.306198 893.953388zM511.306198-111.629147c-273.773294 0-496.506121 222.732827-496.506121 496.506121S237.532905 881.383094 511.306198 881.383094s496.506121-222.732827 496.506121-496.506121S785.079492-111.629147 511.306198-111.629147zM729.10976 474.727351c-1.50119 10.538007-12.125155 18.019399-12.125155 18.019399 0.069585 8.747221-0.997724 17.506722-2.325975 26.1291-6.567579 43.167149-25.604144 81.989339-54.94438 114.470101-49.774637 55.096852-120.787994 68.201312-192.384635 54.434773-19.311835-3.717671-38.337143-9.203616-55.895031-18.110473-43.632753-22.148439-77.064166-66.296939-94.336552-111.357204-5.810333-15.157211-9.44307-31.010271-11.128455-47.136553-0.206708-1.904373 0.38988-17.301038-1.375324-18.464537-0.022513-0.011256-11.197016-7.52744-12.779048-18.054191-1.6158-10.549264-13.56904-43.738154-5.604648-58.793034 0 0-67.917856-65.691141-59.929928-144.727219 7.999185-79.036078 41.546232-33.405831 41.546232-33.405831l21.570271 32.481785c0 0 19.999496-53.169967 47.162136-81.032548 0 0-41.546232-16.821107-47.15088-47.705512-5.593392-30.850635 4.824889-64.437591 112.673176-70.756507 90.324168-5.257747 99.906407 22.855544 99.906407 22.855544l27.265994 0 0.848321 0c0 0 9.087982-28.113291 94.588285-22.855544 102.141308 6.318916 111.985514 44.924165 106.667392 75.797313-5.28333 30.861892-44.594661 45.174875-44.594661 45.174875 25.696242 27.851325 44.594661 79.776951 44.594661 79.776951l20.457938-33.120328c0 0 31.769564-45.928029 39.35738 33.108049 7.541767 79.047334-56.754608 144.57884-56.754608 144.57884C741.992161 431.103808 730.622206 464.18832 729.10976 474.727351z"  horiz-adv-x="1024" />

    
    <glyph glyph-name="geren" unicode="&#59111;" d="M64.816215 145.421276M694.196599 755.028315C644.980687 804.247296 579.645656 831.355701 510.23275 831.355701c-143.540184 0-260.316817-116.771517-260.316817-260.302491 0-49.468668 13.996782-97.623411 40.479947-139.258671 21.553898-33.886785 51.067073-62.766532 85.35397-83.515089l16.832364-10.190083-18.438954-6.869455c-51.952232-19.354813-100.29731-50.481741-139.807163-90.013083-73.699536-73.704652-114.282836-171.681104-114.282836-275.886421 0-12.237719 9.974166-22.197558 22.230304-22.197558 12.226462 0 22.170952 9.958816 22.170952 22.197558 0 92.353384 35.974329 179.192172 101.298104 244.517993 62.59871 62.637596 145.792481 98.55462 234.246045 101.132328l0.338714 0.00921 0.334621-0.013303c3.219321-0.134053 6.427386-0.198521 9.55768-0.198521 143.517671 0 260.279978 116.764354 260.279978 260.285095C770.508635 640.475326 743.408417 705.812403 694.196599 755.028315zM514.642177 355.205187l-0.773619-0.01535-0.762363 0.107447c-1.01819 0.145309-2.003634 0.218988-2.925632 0.218988-3.093455 0-6.219655-0.038886-9.53926-0.116657l-0.338714-0.00921-0.338714 0.016373c-115.302049 5.431709-205.622124 100.155071-205.622124 215.646432 0 119.039163 96.851838 215.883839 215.897142 215.883839 119.04121 0 215.888955-96.844675 215.888955-215.883839C726.125799 454.391187 631.252011 357.561861 514.642177 355.205187zM786.095635 241.204783c-4.196579 4.191462-9.776667 6.499018-15.705704 6.499018-5.929036 0-11.513218-2.313695-15.725146-6.516414-8.624425-8.651031-8.617261-22.728654 0.033769-31.366382 65.335031-65.325821 101.316523-152.166655 101.316523-244.531296 0-12.223393 9.955746-22.166859 22.189372-22.166859 12.234649 0 22.189372 9.94449 22.189372 22.166859C900.394844 69.523679 859.800287 167.511387 786.095635 241.204783z"  horiz-adv-x="1024" />

    
    <glyph glyph-name="tishi" unicode="&#59123;" d="M511.297 842.244c-263.468 0-477.05-213.582-477.05-477.05s213.582-477.05 477.05-477.05 477.05 213.582 477.05 477.05-213.582 477.05-477.05 477.05zM511.297 68.651c-28.483 0-51.572 23.09-51.572 51.572 0 28.483 23.09 51.572 51.572 51.572 28.483 0 51.572-23.09 51.572-51.572 0-28.482-23.09-51.572-51.572-51.572zM562.869 223.37l-103.146 0 0 425.477 103.146 0 0-425.477z"  horiz-adv-x="1024" />

    
    <glyph glyph-name="huoche" unicode="&#59144;" d="M859.212 164.46l0 476.445c0 71.621-59.168 130.787-130.787 130.787l-435.961 0c-71.621 0-130.787-59.168-130.787-130.787l0-476.445c0-65.394 49.823-121.444 112.105-130.787l-115.216-143.243 124.559 0 124.559 140.133 217.981 0 115.216-140.133 118.331 0-105.878 143.243c59.168 12.46 105.878 65.394 105.878 130.787zM298.693 105.296c-31.14 0-59.168 24.912-59.168 59.168 0 31.14 24.912 59.168 59.168 59.168 31.14 0 59.168-24.912 59.168-59.168 0-31.14-24.912-59.168-59.168-59.168zM715.968 105.296c-31.14 0-59.168 24.912-59.168 59.168 0 31.14 24.912 59.168 59.168 59.168 31.14 0 59.168-24.912 59.168-59.168 0-31.14-24.912-59.168-59.168-59.168zM803.161 419.811c0-37.37-28.027-65.394-65.394-65.394l-451.53 0c-37.37 0-65.394 28.027-65.394 65.394l0 143.243c0 37.37 28.027 65.394 65.394 65.394l448.416 0c37.37 0 65.394-28.027 65.394-65.394l0-143.243zM432.594 802.833l158.816 0c24.912 0 46.709 21.797 46.709 46.709s-21.797 46.709-46.709 46.709l-158.816 0c-24.912 0-46.709-21.797-46.709-46.709s21.797-46.709 46.709-46.709z"  horiz-adv-x="1024" />

    
    <glyph glyph-name="tishi1" unicode="&#59124;" d="M513.193175 868.45362c-268.206508 0-485.625306-217.440287-485.625306-485.616096 0-268.232091 217.418798-485.636562 485.625306-485.636562 268.200368 0 485.625306 217.404472 485.625306 485.636562C998.818481 651.01231 781.393543 868.45362 513.193175 868.45362L513.193175 868.45362zM513.128707-38.115853c-232.488005 0-420.968727 188.471512-420.968727 420.964634 0 232.488005 188.480722 420.986123 420.968727 420.986123 232.509495 0 420.981007-188.499142 420.981007-420.986123C934.109714 150.355659 745.638201-38.115853 513.128707-38.115853L513.128707-38.115853zM613.477182 255.022487c-11.768021 0-57.985646-68.233034-83.178421-68.233034-6.727215 0-10.06524 5.618974-10.06524 11.232832 0 12.834306 9.232269 32.921807 14.266935 44.962028l60.485583 156.497287c30.253024 77.863369-8.405437 98.714256-44.526099 98.714256-48.713468 0-92.40455-23.271006-126.006855-53.763484-10.924817-10.446933-38.046524-50.957579-38.046524-66.305125 0-5.115508 5.119601-11.104919 11.115152-11.104919 15.355733 0 45.407166 78.2072 76.488045 78.2072 6.738471 0 14.298658-7.236821 8.403391-21.657252L423.632393 282.304853c-5.900384-13.651928-34.46086-60.465117-34.46086-98.984409 0-30.491455 21.00029-63.139016 51.253314-63.139016 84.850503 0 183.117574 99.520621 183.117574 122.802884C623.537306 250.204761 617.673761 255.022487 613.477182 255.022487L613.477182 255.022487zM596.653005 645.882476c-36.954657 0-68.879764-28.891004-68.879764-64.200184 0-32.912597 22.681582-54.595432 57.142441-54.595432 37.792745 0 69.711711 27.291576 69.711711 64.199161C654.628418 624.212944 630.274754 645.882476 596.653005 645.882476L596.653005 645.882476zM596.653005 645.882476"  horiz-adv-x="1024" />

    
    <glyph glyph-name="iconfontradiobox" unicode="&#58924;" d="M512 830.016C266.08 830.016 65.984 629.92 65.984 384c0-245.952 200.064-446.016 446.016-446.016 245.952 0 446.016 200.064 446.016 446.016C958.016 629.92 757.952 830.016 512 830.016zM512 1.984C301.344 1.984 129.984 173.376 129.984 384 129.984 594.656 301.344 766.016 512 766.016c210.624 0 382.016-171.36 382.016-382.016C894.016 173.376 722.624 1.984 512 1.984zM512 544c-88.224 0-160-71.776-160-160s71.776-160 160-160 160 71.776 160 160S600.224 544 512 544z"  horiz-adv-x="1024" />

    
    <glyph glyph-name="cnfanyeyoujiantou" unicode="&#58880;" d="M415.18807 134.048251 632.635521 347.361545c10.450003 10.29446 15.699564 23.809265 15.699564 37.33942 0 13.545504-5.249561 27.075659-15.72924 37.401842L415.18807 635.385401c-9.240455 9.067516-24.232914 9.067516-33.488719 0-9.239432-9.082866-9.239432-23.777543 0-32.860409l217.385029-213.251895c2.625804-2.561335 2.593058-6.53688 0.032746-9.082866L381.700375 166.90866c-9.239432-9.081843-9.239432-23.791869 0-32.859385C390.955156 124.980735 405.947616 124.980735 415.18807 134.048251z"  horiz-adv-x="1024" />

    
    <glyph glyph-name="fuwu" unicode="&#59087;" d="M1012.453178 795.922326C947.889691 860.479714 861.938711 896 770.405666 896s-177.525193-35.55688-242.082581-100.120366L289.399761 556.995952c-15.415097-15.419671-15.415097-40.553445 0-55.973115 7.498659-7.457491 17.409453-11.591055 27.986558-11.591055s20.530591 4.09697 27.986558 11.591055l238.883681 238.882157c49.613435 49.613435 115.736728 76.976375 186.114039 76.976375s136.457912-27.326346 186.071347-76.933683c102.616362-102.622461 102.616362-269.562925 0-372.220455L556.311168-32.444713 156.104155 367.684538c-102.622461 102.616362-102.622461 269.605618 0 372.185386 49.529575 49.529575 115.26101 76.814753 185.09399 76.814753 12.60958 0 25.409751-0.899595 38.017806-2.694211 1.876952-0.272928 3.74628-0.393382 5.623232-0.393382 19.553234 0 36.378713 14.64053 39.147637 34.039766 3.043376 21.625353-12.060674 41.6848-33.644859 44.734275-15.925884 2.299304-32.12622 3.430659-48.244221 3.430659-36.188121 0-71.745001-5.537847-105.742074-16.509858-51.722147-16.706549-97.583203-44.770869-136.267319-83.413817-133.457228-133.455703-133.457228-350.677438 0.041168-484.127043l428.153927-428.161551c7.455967-7.451392 17.409453-11.58953 27.986558-11.58953 10.578629 0 20.493997 4.09697 27.986558 11.58953l428.160026 428.161551C1145.94395 445.243363 1145.908881 662.42393 1012.453178 795.922326L1012.453178 795.922326zM1012.453178 795.922326"  horiz-adv-x="1113" />

    
    <glyph glyph-name="weixin" unicode="&#58992;" d="M691.395 595.214c11.727 0 23.331-0.86 34.837-2.143-31.303 145.762-187.136 254.059-365.012 254.059-198.863 0-361.762-135.55-361.762-307.675 0-99.353 54.196-180.943 144.761-244.223l-36.181-108.83 126.466 63.423c45.251-8.96 81.561-18.171 126.718-18.171 11.35 0 22.61 0.562 33.774 1.439-7.068 24.187-11.164 49.52-11.164 75.803 0 158.052 135.722 286.316 307.565 286.316zM496.881 693.299c27.238 0 45.283-17.92 45.283-45.142 0-27.114-18.045-45.282-45.283-45.282-27.115 0-54.32 18.171-54.32 45.282 0 27.223 27.206 45.142 54.32 45.142zM243.698 602.876c-27.115 0-54.476 18.171-54.476 45.282 0 27.222 27.362 45.142 54.476 45.142 27.115 0 45.158-17.92 45.158-45.142 0-27.114-18.044-45.282-45.158-45.282zM1021.572 313.244c0 144.637-144.73 262.534-307.285 262.534-172.122 0-307.69-117.898-307.69-262.534 0-144.884 135.567-262.532 307.69-262.532 36.027 0 72.364 9.085 108.548 18.155l99.226-54.337-27.207 90.409c72.615 54.476 126.719 126.717 126.719 208.305zM614.527 358.513c-18.012 0-36.18 17.919-36.18 36.197 0 18.029 18.17 36.181 36.18 36.181 27.364 0 45.283-18.153 45.283-36.181 0-18.278-17.92-36.197-45.283-36.197zM813.517 358.513c-17.888 0-35.933 17.919-35.933 36.197 0 18.029 18.045 36.181 35.933 36.181 27.113 0 45.282-18.153 45.282-36.181-0.001-18.278-18.172-36.197-45.282-36.197z"  horiz-adv-x="1024" />

    
    <glyph glyph-name="biaoqingleiben" unicode="&#59120;" d="M1103.648015 896 74.50713 896c-41.091378 0-74.50713-33.415751-74.50713-74.50713l0-708.121187c0-41.055678 33.451452-74.50713 74.50713-74.50713l55.978524 0c3.391556-10.460273 9.603458-20.813444 18.921312-30.488303 2.284838-2.356239 5.212286-4.069867 8.389638-4.926681 93.32134-24.169299 116.491023-54.229195 121.988913-69.973155 6.104801-17.457588-3.998466-31.48792-4.641077-32.344734-5.997699-7.747028-4.641077-18.849911 2.998849-24.919011 7.747028-6.176202 18.921312-4.890981 25.097514 2.891748 8.46104 10.710177 20.206533 36.450302 10.567374 65.296378-13.244919 39.484852-60.976606 70.544364-141.838441 92.250322-6.711711 7.996932-8.746644 14.56584-8.746644 19.920929 0 0.035701 0 0.071401 0 0.107102 0.035701 7.140118 4.533975 14.315936 12.638009 20.527839 0.249904 0.178503 0.535509 0.357006 0.749712 0.535509 2.320538 1.713628 4.926681 3.355855 7.782728 4.85528 0.678311 0.392706 1.356622 0.714012 2.034934 1.035317 3.427257 1.713628 7.354321 3.03455 11.245686 4.426873 6.211903 1.499425 17.421888 3.498658 35.236482 3.498658 31.238016 0 67.688317-6.140501 108.279887-18.100199 6.783112-2.963149 13.566224-6.0334 20.420737-9.67486 2.070634-1.106718 4.141268-2.284838 6.211903-3.498658 8.603842-4.81958 17.207684-10.103267 25.882927-16.065265 0.749712-0.535509 1.463724-0.892515 2.213437-1.428024 136.519053-95.856082 121.274902-144.23038 121.382003-144.23038 0 0 0 0 0 0-4.605376-8.710944-1.285221-19.528222 7.425723-24.133598 2.641844-1.392323 5.497891-2.070634 8.318237-2.070634 6.426106 0 12.602308 3.462957 15.77966 9.532057 5.604993 10.603075 24.276401 64.082558-88.965868 157.011191l315.878813 0c-113.27797-92.964334-94.642262-146.443817-89.037269-157.011191 3.284454-6.176202 9.746261-9.889063 16.38657-9.889063 2.677544 0 5.42649 0.642611 7.996932 1.999233 8.710944 4.605376 12.281003 14.922846 7.675627 23.63379-0.178503 0.464108-16.208067 48.838406 120.989297 145.158596 9.567758 6.711711 19.064115 12.495206 28.560471 17.778893 1.713628 0.963916 3.462957 1.963532 5.176585 2.891748 7.140118 3.784262 14.173134 6.997315 21.241851 10.067566 40.448768 11.888296 76.827668 18.028798 107.994282 18.028798 17.850295 0 29.024579-2.034934 35.16508-3.462957 3.927065-1.392323 7.961231-2.748945 11.352787-4.498274 0.678311-0.321305 1.285221-0.642611 1.927832-0.928215 2.998849-1.606527 5.819196-3.320155 8.211136-5.176585 0.107102-0.071401 0.214204-0.142802 0.321305-0.214204 8.175435-6.211903 12.673709-13.423422 12.70941-20.59924 0-0.107102 0.071401-0.178503 0.071401-0.285605-0.071401-5.283687-2.177736-11.816895-8.782345-19.742426-80.897535-21.705958-128.593522-52.765471-141.838441-92.250322-9.67486-28.846076 2.106335-54.586201 10.567374-65.296378 6.140501-7.782728 17.350486-9.032249 25.061814-2.891748 7.747028 6.104801 9.032249 17.314786 2.891748 25.061814-0.107102 0.142802-10.603075 14.137433-4.676777 31.773524 5.283687 15.851062 28.239166 46.089461 122.131716 70.437262 3.213053 0.821114 6.104801 2.534742 8.389638 4.926681 9.353554 9.71056 15.601157 20.135132 18.957013 30.666806 40.305965 0.892515 72.829202 33.808458 72.829202 74.328627L1178.012342 821.49287C1178.119444 862.584249 1144.703692 896 1103.648015 896zM189.534428 553.452847l158.867622 0c6.711711-23.598089 18.1716-83.575079-8.710944-159.296029L337.763274 388.87313c-13.030715-36.236098-29.238783-81.325942 6.783112-174.50448 22.027264-56.871039 8.46104-89.251473-0.785413-103.0319 0 0.035701-0.035701 0.035701-0.071401 0.035701-1.606527 0.642611-3.177352 1.21382-4.748178 1.82073-21.313252 8.032633-41.876791 13.102116-61.333612 15.74396-1.677928 0.214204-3.355855 0.464108-5.033783 0.678311-9.139351 1.035317-17.993097 1.606527-26.561238 1.642227-1.927832 0-3.784262-0.107102-5.712094-0.178503-7.104417-0.178503-13.994631-0.678311-20.563539-1.499425-1.749329-0.214204-3.534358-0.357006-5.247987-0.60691-1.392323-0.214204-2.677544-0.571209-4.034167-0.785413 6.211903 29.560088 10.424572 73.257609-9.032249 102.496392-20.849144 31.48792-25.704424 128.45072-0.357006 201.672628C211.954398 463.915769 198.816581 520.893909 189.534428 553.452847zM891.193808 214.36865c36.057595 93.249939 19.778126 138.339783 6.711711 174.611582L896.049088 394.156818c-26.882544 75.75665-15.386954 135.69794-8.675243 159.296029l158.867622 0c-9.317854-32.558937-22.455671-89.537078-11.53129-121.096399 25.276017-73.29331 20.456438-170.29181-0.357006-201.636928-19.492522-29.274483-15.279852-72.936304-9.06795-102.532092-1.392323 0.285605-2.677544 0.60691-4.105568 0.785413-1.142419 0.178503-2.356239 0.249904-3.570059 0.428407-7.390022 0.999616-15.17275 1.535125-23.241084 1.713628-1.071018 0.035701-2.106335 0.107102-3.177352 0.107102-29.845693 0.142802-63.61845-5.783495-99.176237-19.885228C882.732769 125.045776 869.166545 157.461911 891.193808 214.36865zM1142.418854 113.371684c0-20.884845-16.565073-37.914026-37.235715-38.735139-2.391939 6.854513-6.176202 13.494823-11.459889 19.671025-0.749712 0.821114-1.642227 1.606527-2.391939 2.391939-0.285605 0.321305-0.60691 0.571209-0.856814 0.856814-2.641844 2.713245-5.604993 5.283687-8.853746 7.747028-0.999616 0.785413-2.070634 1.570826-3.141652 2.320538-2.534742 1.785029-5.283687 3.462957-8.175435 5.069484-1.21382 0.714012-2.249137 1.535125-3.534358 2.213437-0.392706 0.214204-0.892515 0.321305-1.285221 0.535509-0.035701 0.035701-0.071401 0.035701-0.107102 0.071401-6.783112 22.848377-16.850678 72.11519-1.249521 95.463376 29.70289 44.804239 31.737824 153.691037 4.355472 233.089147-7.390022 21.384653 4.105568 73.971621 15.029948 109.422306l6.997315 0c9.853363 0 17.850295 7.996932 17.850295 17.850295s-7.996932 17.850295-17.850295 17.850295l-20.028031 0-195.924834 0-15.422655 0c-9.853363 0-17.850295-7.996932-17.850295-17.850295 0-6.925914 4.034167-12.74511 9.781961-15.708259-8.032633-31.809225-16.636475-94.606561 11.317087-173.362061l1.927832-5.390789c11.638392-32.237632 24.811909-68.795035-6.426106-149.549768-25.347418-65.43918-12.066799-108.101384 1.428024-130.949761-11.888296-6.283304-23.919395-13.494823-35.986194-21.705958l-0.035701-0.035701L412.698811 74.636544c-1.142419 0.785413-2.284838 1.320922-3.462957 2.106335-9.781961 6.568908-19.563923 12.459506-29.238783 17.707492-1.178119 0.642611-2.356239 1.428024-3.570059 2.070634 13.494823 22.884078 26.739741 65.510581 1.428024 130.842659C346.617021 307.975595 359.790538 344.497298 371.357529 376.770631l1.963532 5.46219C401.274623 460.988321 392.670781 523.749956 384.638148 555.559181c5.783495 2.963149 9.817662 8.782345 9.817662 15.708259 0 9.853363-7.996932 17.850295-17.850295 17.850295L361.218562 589.117735l-195.924834 0L145.265697 589.117735c-9.853363 0-17.850295-7.996932-17.850295-17.850295s7.996932-17.850295 17.850295-17.850295l6.997315 0c10.88868-35.450685 22.41997-88.037653 15.029948-109.422306-26.953945-77.934386-24.883311-188.998919 4.355472-233.089147 15.458355-23.241084 5.46219-72.614998-1.285221-95.463376-0.428407-0.249904-0.999616-0.392706-1.428024-0.60691-1.428024-0.749712-2.570442-1.642227-3.891364-2.391939-2.677544-1.535125-5.247987-3.070251-7.639926-4.748178-1.178119-0.821114-2.320538-1.677928-3.462957-2.534742-3.105951-2.391939-5.961998-4.890981-8.532441-7.532824-0.357006-0.357006-0.749712-0.714012-1.106718-1.071018-0.749712-0.749712-1.642227-1.499425-2.320538-2.284838-2.177736-2.534742-3.891364-5.212286-5.604993-7.85413-0.035701-0.107102-0.107102-0.178503-0.178503-0.249904-2.356239-3.784262-4.355472-7.675627-5.747795-11.638392l-55.978524 0c-21.420354 0-38.80654 17.386187-38.80654 38.80654L35.664889 821.49287c0 21.384653 17.421888 38.80654 38.80654 38.80654l1029.140885 0c21.384653 0 38.77084-17.421888 38.77084-38.80654L1142.383154 113.371684zM551.288498 636.599519c0 9.853363-7.996932 17.850295-17.850295 17.850295-60.512499 0-111.814245 37.414217-136.483353 55.407314C391.278458 713.998396 386.815884 717.211449 383.745633 719.032179 375.248893 724.065962 364.324513 721.281316 359.29073 712.784576 354.256947 704.323537 357.041593 693.363456 365.502632 688.329673c2.391939-1.463724 5.926298-4.034167 10.424572-7.354321 27.703657-20.206533 85.360109-62.261828 157.511-62.261828C543.291566 618.749224 551.288498 626.746156 551.288498 636.599519zM807.08322 719.032179c-3.03455-1.82073-7.532824-5.033783-13.244919-9.175051-24.633407-17.957396-75.935153-55.371614-136.447652-55.371614-9.853363 0-17.850295-7.996932-17.850295-17.850295s7.996932-17.850295 17.850295-17.850295c72.150891 0 129.807342 42.019593 157.511 62.226127 4.498274 3.284454 8.032633 5.926298 10.460273 7.354321 8.46104 5.033783 11.245686 15.993864 6.211903 24.454904C826.504341 721.317017 815.54426 724.101663 807.08322 719.032179zM716.510825 233.932573l-120.132483 53.90789c-4.926681 2.213437-10.567374 2.070634-15.386954-0.357006l-106.244953-53.90789c-8.818046-4.462574-12.316703-15.208451-7.85413-24.026497 4.426873-8.782345 15.17275-12.209602 23.990796-7.85413l98.640728 50.052226 112.314054-50.409232c2.356239-1.071018 4.890981-1.570826 7.318621-1.570826 6.783112 0 13.31632 3.891364 16.279469 10.531674C729.54154 219.295332 725.507374 229.862706 716.510825 233.932573z"  horiz-adv-x="1179" />

    
    <glyph glyph-name="icon21" unicode="&#59147;" d="M783.177 635.774l-215.99-431.978-250.097 409.243 466.087 22.735zM-1.212 385.682c0-282.493 229.055-511.559 511.559-511.559 282.487 0 511.553 229.067 511.553 511.559 0 282.492-229.066 511.554-511.553 511.554-282.503 0-511.559-229.061-511.559-511.554zM214.779 613.039l45.471 0 341.042-579.766-34.103-22.735-352.41 602.502z"  horiz-adv-x="1024" />

    
    <glyph glyph-name="zuobiao" unicode="&#59311;" d="M509.28261 825.173908c-199.177342 0-355.846544-158.65544-355.846544-353.634156 0-88.381933 77.549214-215.32716 133.763516-278.647301l0-0.080841 0.103354-0.644683 0.381693 0c54.538127-63.751976 166.754908-220.264613 168.797427-223.078705 13.462616-16.700357 32.093952-26.233478 52.339042-26.261107 20.169365 0 39.151695 9.533121 52.931536 26.547633 82.709747 105.540731 102.256942 136.121214 115.311259 156.343791 9.695826 15.017018 14.483876 22.560832 44.450375 56.985876 15.238053 17.563004 149.049664 174.711114 149.049664 288.835338C870.558817 666.518468 708.453812 825.173908 509.28261 825.173908zM509.305123 388.936429c-61.569264 0-111.673405 49.02967-111.673405 109.231797 0 60.247152 50.104141 109.259426 111.673405 109.259426 61.523215 0 111.601774-49.012274 111.601774-109.259426C620.906897 437.966099 570.828338 388.936429 509.305123 388.936429z"  horiz-adv-x="1024" />

    
    <glyph glyph-name="xuanzhong" unicode="&#59097;" d="M0-128C0-128 1024-128 1024-128 1024-128 1024 896 1024 896 1024 896 0-128 0-128ZM653.880889-32.540444C653.880889-32.540444 431.255704 197.44237 431.255704 197.44237 431.255704 197.44237 488.334222 243.939556 488.334222 243.939556 488.334222 243.939556 617.092741 141.387852 617.092741 141.387852 669.847704 205.103407 787.000889 331.548444 948.603259 432.014222 948.603259 432.014222 962.218667 400.156444 962.218667 400.156444 813.852444 261.764741 692.451556 67.053037 653.880889-32.540444Z"  horiz-adv-x="1024" />

    
    <glyph glyph-name="guanzhugouhao" unicode="&#58886;" d="M1025.281 631.106l-126.69 126.686-506.811-506.799-253.39 253.387-126.699-126.701 380.105-380.103 126.678 126.722z"  horiz-adv-x="1024" />

    
    <glyph glyph-name="weizhibiaozhu" unicode="&#59164;" d="M512 896C450.112 896 388.288 875.392 333.312 847.872c-158.08-96.256-206.144-295.488-116.8-453.568L512-128l295.488 522.304c89.344 158.08 41.216 357.312-116.8 453.568C635.712 882.24 573.888 896 512 896"  horiz-adv-x="1024" />

    
    <glyph glyph-name="ditu" unicode="&#59170;" d="M399.747403 218.736049c1.75497-2.65241 3.510964-4.765537 4.90573-6.294356 41.229007-52.15587 82.772168-86.86744 84.573187-88.351234l28.941146-24.054859 28.806069 24.234961c1.799996 1.483794 43.209104 36.599569 84.34806 88.620363 1.39579 1.573845 3.195785 3.731998 4.950755 6.384407 58.827827 80.122829 131.967614 196.215894 148.486846 296.751634 3.195785 22.88522 3.285836 36.778648 3.285836 38.307468 0.540306 75.087139-28.085662 145.67787-80.611969 198.5081-50.860365 51.167357-118.14991 79.358419-189.444677 79.358419-71.025637 0-138.134057-28.191062-188.995445-79.358419-52.79646-53.100382-81.602529-124.051317-81.062224-199.722764 0-1.213641 0.090051-15.107069 3.15076-36.913724C268.815375 408.611537 351.362416 284.291091 399.747403 218.736049zM517.987365 650.329764c62.023612 0 112.523773-50.402947 112.523773-112.406093 0-62.003146-50.500161-112.406093-112.523773-112.406093s-112.523773 50.402947-112.523773 112.406093C405.463592 599.926818 455.964776 650.329764 517.987365 650.329764zM942.741301 609.185692l-30.722722-8.966209 0-0.104377-88.533382-26.13831c-0.87902-15.799848-1.231037-28.223808-4.176113-52.261271l92.709495 31.451316 0-493.187539L648.879484-17.508513l0-0.410346-313.736471 90.862427 0 0.12996-0.207731-0.069585-0.240477 0.069585 0-0.150426L110.275569-2.3073 110.275569 484.504018l92.90904 23.458271c-2.24411 13.380752-3.14155 27.65485-3.14155 41.927925l0 1.784646L65.392336 517.775796l0-22.301935 0-557.550429 44.883233 15.165398 224.659713 75.311243 313.944202-90.922802 307.098283 90.433662L955.977767 590.564589 955.977767 613.093698 942.741301 609.185692z"  horiz-adv-x="1024" />

    
    <glyph glyph-name="552cc4077f2ed" unicode="&#59168;" d="M952.832 543.232c-0.064 0.48-0.16 0.928-0.256 1.312-0.384 1.856-0.896 3.648-1.632 5.376L875.936 736.64c-12.992 38.72-50.304 62.464-93.952 62.56L255.488 799.2c-44.224 0-78.592-23.52-91.04-60.704l-80.64-190.528c-0.384-1.12-0.8-2.784-1.152-4.48-5.856-17.984-8.8-36.448-8.8-54.976 0.064-65.152 35.808-124.64 93.248-155.264 0 0 0-0.032 0.032-0.032s0.032 0 0.032-0.032l0 0c0 0 0.032 0 0.032-0.032 23.648-12.608 51.456-19.008 82.784-19.008 52.512 0.16 101.152 23.232 134.304 62.72 32.992-39.168 81.248-62.08 133.664-62.4 52 0.416 100.128 23.424 132.96 62.56 33.152-39.488 81.856-62.464 134.624-62.464 31.936 0.16 60.288 6.88 84.16 19.968 56.576 30.912 91.68 90.176 91.648 154.656C961.44 507.712 958.4 526.304 952.832 543.232zM839.072 390.688c-14.496-7.936-32.576-12-53.6-12.128-38.976 0-74.496 19.776-95.232 53.344-1.472 3.168-3.936 8.416-8.544 13.472-5.28 5.92-14.88 12.928-30.688 12.928-12.736 0-24.288-5.216-30.816-13.216-4.32-4.864-6.688-9.696-8.384-13.216-20.48-33.152-55.712-53.12-93.888-53.408-38.656 0.224-73.984 20.128-94.592 53.536-1.44 2.944-3.84 7.904-7.584 12.096-15.04 17.952-48.704 17.024-61.824 1.376-4.832-5.28-7.36-10.592-8.992-14.208-20.672-33.152-56.224-53.024-95.008-53.152-20.672 0-38.368 3.872-52.64 11.488 0 0-0.032 0-0.032 0 0 0 0 0-0.032 0-36.608 19.488-59.36 57.376-59.392 98.848 0 12.256 2.048 24.608 6.144 36.64 0.288 0.864 0.544 1.824 0.768 2.816l79.424 187.776c1.632 4.8 6.56 19.424 31.264 19.424L782.08 735.104c10.144-0.608 27.616-2.4 33.824-20.672l74.368-185.184c0.288-1.344 0.64-2.624 0.96-3.68 4.128-12.064 6.176-24.32 6.176-36.48C897.472 448.096 875.104 410.4 839.072 390.688zM863.072 288c-17.696 0-32-14.304-32-32l0.064-174.592c0-9.92-8.096-17.984-17.984-18.016L211.072 63.008c-9.92 0-17.984 8-17.984 17.856l-0.224 171.584c-0.032 17.664-14.368 31.936-32 31.936 0 0-0.032 0-0.064 0-17.664-0.032-31.968-14.368-31.936-32.064l0.224-171.488c0-45.12 36.768-81.824 81.984-81.824l602.176 0.384c45.152 0.096 81.888 36.896 81.888 82.048L895.072 256C895.072 273.696 880.736 288 863.072 288zM768 512 256 512c-17.664 0-32 14.336-32 32s14.336 32 32 32l512 0c17.696 0 32-14.336 32-32S785.696 512 768 512z"  horiz-adv-x="1024" />

    
    <glyph glyph-name="duigou" unicode="&#58906;" d="M513.706667-126.293333C233.813333-126.293333 5.12 102.4 5.12 384c0 281.6 228.693333 510.293333 510.293333 510.293333C795.306667 894.293333 1024 665.6 1024 384 1024 102.4 795.306667-126.293333 513.706667-126.293333zM513.706667 826.026667C271.36 826.026667 73.386667 628.053333 73.386667 384s197.973333-442.026667 442.026667-442.026667S955.733333 139.946667 955.733333 384 757.76 826.026667 513.706667 826.026667zM433.493333 182.613333c-8.533333 0-17.066667 3.413333-23.893333 10.24l-170.666667 170.666667c-13.653333 13.653333-13.653333 34.133333 0 47.786667 13.653333 13.653333 34.133333 13.653333 47.786667 0l146.773333-146.773333 308.906667 308.906667c13.653333 13.653333 34.133333 13.653333 47.786667 0 13.653333-13.653333 13.653333-34.133333 0-47.786667L457.386667 192.853333C452.266667 187.733333 442.026667 182.613333 433.493333 182.613333z"  horiz-adv-x="1024" />

    
    <glyph glyph-name="kuaiting" unicode="&#59157;" d="M990.641006 896 815.943979 896 722.115605 896 595.110348 896 559.859909 846.753064 559.859909 846.234675 513.723306 785.583185 576.96674 766.921188 616.882678 846.234675 624.140121 846.234675 899.922966 846.234675 792.616483 634.213653 877.632247 585.485106 1026.409834 867.488616ZM437.520151 240.238162c0 0 53.394047 2.073555 71.537655 0.518389 77.239932-8.294221 130.11559-23.845885 284.595454-86.052542 0 0 153.443086-57.541157 204.763578-74.129599 223.943964-71.019266 310.514894-85.015764 491.432587-47.69177l5.702277 0 19.698775 100.567428c-147.222421 69.4641-301.702285 173.66025-444.259206 273.1909C706.563941 660.651482 484.175144 852.45534 0 834.311732c29.029773-260.23118 152.406309-395.530658 199.061301-642.283729C251.41857 215.355499 328.140114 236.091051 437.520151 240.238162zM533.42208 200.322224c77.239932-8.294221 130.11559-23.845885 284.595454-86.052542 0 0 153.443086-57.541157 204.763578-74.129599 223.943964-71.019266 310.514894-85.015764 491.432587-47.69177l9.849387 0 0 0c6.739054 0 12.441331-7.257443 14.514887-18.143608 2.073555-10.886165 0-22.809107-5.183888-29.548162-51.320492-66.353767-159.663752-84.497375-321.401059-65.835378-217.204909 25.401051-265.415068 102.122595-548.455356 158.108586-72.574433 14.514887-162.255696 25.91944-256.08407 25.91944-246.234682 0-301.183896-65.835378-303.257451-66.353767-6.220666-1.555166-12.441331 3.110333-16.070053 12.441331-3.110333 9.330998-3.110333 21.253941 1.036778 29.548162 6.739054 15.033275 18.143608 29.029773 33.176884 41.471104l0 0c0 0 73.092822 109.380038 339.544667 119.747814C461.884425 199.803835 515.796861 201.87739 533.42208 200.322224zM194.914191-29.842406c-4.14711-3.110333-6.739054-11.404554-5.183888-19.180386 1.555166-7.775832 5.702277-12.441331 10.367776-10.886165 8.81261 3.628722 18.661997 6.220666 28.511384 7.775832 40.952716 7.257443 80.868654-1.555166 122.858147-10.886165 41.471104-9.330998 85.015764-19.180386 128.560424-10.886165 12.441331 2.073555 24.882663 5.702277 36.287216 10.886165 38.360772 15.551664 77.239932 37.842383 83.978986 45.099826 3.628722 4.14711 5.183888 12.441331 3.628722 19.698775-1.555166 7.257443-6.220666 11.404554-10.367776 9.330998-13.996498-6.220666-29.029773-10.367776-44.581437-13.478109-44.581437-8.294221-90.718041-2.073555-135.299478 3.110333-45.099826 5.702277-91.23643 11.404554-136.336256 3.110333C247.27146-1.331022 220.315242-12.217186 194.914191-29.842406L194.914191-29.842406zM194.914191-29.842406"  horiz-adv-x="1540" />

    
    <glyph glyph-name="qiche" unicode="&#59158;" d="M1192.542859 76.629996c45.426161 53.917032 69.2006 130.759416 68.776057 216.517215-0.424544 115.051305-43.303443 214.819041-125.664894 263.217007-23.349896 196.563668-118.872197 340.059391-235.621676 339.634848L358.739308 895.149979C241.565285 894.725435 146.892072 751.229712 124.391263 554.2415c-82.361451-48.822509-124.391263-148.590246-124.391263-264.066094 0-85.757799 24.623526-162.600183 70.474231-216.092672l0-78.540559 0.849087 0 0-108.683151c0-8.066328 6.792697-14.859025 14.859025-14.859025l182.553731 0c8.066328 0 14.859025 6.792697 14.859025 14.859025l0 108.683151 696.675981 0 0-108.683151c0-8.066328 6.792697-14.859025 14.859025-14.859025l182.553731 0c8.066328 0 14.859025 6.792697 14.859025 14.859025l0 177.034664c0 1.273631 0 2.547261-0.424544 3.396348L1192.118316 76.629996zM359.163852 822.128487 900.45689 823.402117c75.14421 0.424544 141.373005-101.890454 166.421075-240.291655-11.462676 2.122718-23.774439 3.820892-36.086203 4.669979 0 0.424544 0.424544 0.849087 0 0.849087-101.890454-0.424544-70.049687 0-141.797549-0.424544-71.747862 0-46.699792 0-118.02311-0.424544L247.508895 586.506811c-19.10446 0-36.93529-2.122718-53.917032-5.519066C217.790846 719.388945 283.595098 821.703943 359.163852 822.128487zM218.21539 194.653105c-46.699792 0-84.484168 42.8789-84.484168 95.946844 0 53.067945 37.359833 96.371388 84.059625 96.371388 46.275248 0 84.059625-42.8789 84.059625-95.946844C302.275015 237.532005 264.915181 194.653105 218.21539 194.653105zM874.984277 212.908478l-488.225094-0.424544c-75.993297 0-77.691471 131.18396-0.424544 131.18396l488.225094 1.273631C945.883051 344.516982 946.307595 212.908478 874.984277 212.908478zM1043.52807 388.669512c46.275248 0 84.059625-42.8789 84.484168-95.946844 0-53.067945-37.359833-96.371388-83.635081-96.371388-46.275248 0-84.059625 42.8789-84.484168 95.946844C959.468445 345.366069 996.828278 388.669512 1043.52807 388.669512z"  horiz-adv-x="1262" />

    
    <glyph glyph-name="kefudianhua" unicode="&#59159;" d="M583.19296 716.8C602.39296 716.8 615.19296 710.4 634.39296 704c89.6-32 140.8-89.6 172.8-153.6 32-64 32-134.4 12.8-204.8-6.4-12.8-12.8-32-19.2-44.8l-89.6 25.6c6.4 12.8 12.8 25.6 12.8 44.8 12.8 51.2 12.8 102.4-6.4 147.2-19.2 44.8-57.6 83.2-121.6 108.8C583.19296 627.2 570.39296 633.6 551.19296 633.6L583.19296 716.8 583.19296 716.8 583.19296 716.8zM679.19296-57.6l51.2 25.6c-32 128-153.6 275.2-185.6 281.6l-25.6-12.8-25.6-12.8-38.4-19.2L448.79296 198.4l-64-32c-89.6 128-102.4 166.4-166.4 313.6L275.99296 512l83.2 38.4 25.6 12.8c12.8 44.8-70.4 256-134.4 307.2L199.19296 844.8 160.79296 825.6 135.19296 812.8 109.59296 800C26.39296 761.6-5.60704 704 0.79296 640l0 0 0 0c57.6-288 179.2-512 384-729.6 51.2-44.8 115.2-51.2 204.8-12.8l32 12.8L679.19296-57.6 679.19296-57.6 679.19296-57.6 679.19296-57.6zM563.99296 512C519.19296 524.8 467.99296 499.2 455.19296 454.4 435.99296 409.6 461.59296 364.8 512.79296 352c44.8-12.8 96 12.8 108.8 51.2C634.39296 448 608.79296 492.8 563.99296 512L563.99296 512 563.99296 512zM640.79296 896 615.19296 812.8c19.2-6.4 38.4-6.4 51.2-12.8C755.99296 768 832.79296 704 877.59296 627.2c44.8-76.8 64-179.2 44.8-288C915.99296 320 909.59296 294.4 896.79296 268.8l89.6-25.6c12.8 25.6 19.2 51.2 25.6 76.8C1043.99296 454.4 1018.39296 576 960.79296 672c-57.6 96-153.6 172.8-262.4 211.2C679.19296 883.2 659.99296 889.6 640.79296 896L640.79296 896zM640.79296 896"  horiz-adv-x="1026" />

    
    </font>
</defs>
</svg>
